<svg width="72" height="56" viewBox="0 0 72 56" fill="none" xmlns="http://www.w3.org/2000/svg" role="img" aria-label="ARKAND">
  <defs>
    <linearGradient id="ak-crimson" x1="8" y1="52" x2="64" y2="6" gradientUnits="userSpaceOnUse">
      <stop stop-color="#6b0f18"/>
      <stop offset="0.55" stop-color="#a4161a"/>
      <stop offset="1" stop-color="#c22530"/>
    </linearGradient>
  </defs>
  <!-- phoenix: swept wings rising to the upper-right over a wave -->
  <path fill="url(#ak-crimson)" d="M60.5 5.2c-4.7 6.3-9.8 10.6-15.4 12.9 2.7-4.6 4.2-9.4 4.4-14.4-3.9 5.4-7.9 9.1-12.1 11.2 1.3-3.6 1.9-7 1.8-10.2-3.6 5.9-8 9.6-13.2 11.2 5.6 1.3 10.9.7 15.9-1.7-2.1 3.9-5 6.7-8.6 8.4 5.2.4 10-1 14.2-4.2-1.4 3.6-3.6 6.6-6.5 9 6.6-1 12.2-4.5 16.7-10.6-2.9 8.7-8.6 14.9-16.9 18.7z"/>
  <path fill="url(#ak-crimson)" d="M6 33.5c9.4-4.6 18.6-6.9 27.6-6.9 9 0 17.6 2 25.9 6-8-1.9-15.9-2.9-23.6-2.9-9.8 0-19.7 1.3-29.9 3.8z" opacity="0.95"/>
  <path fill="url(#ak-crimson)" d="M10 41c8.3-3.6 16.7-5.4 25-5.4 6.6 0 13.2 1.1 19.8 3.4-6.2-1.1-12.2-1.7-18.1-1.7-8.9 0-17.8 1.2-26.7 3.7z" opacity="0.75"/>
</svg>
