<svg xmlns="http://www.w3.org/2000/svg" viewBox="0 0 2904 1360" width="2904" height="1360"><path fill="#8f1418" d="M2650.621 640.098C2653 642 2653 642 2654 645c-2.733 1.366-5.318 1.16-8.323 1.24-31.92.89-57.925 13.853-83.388 32.365l-1.616 1.174q-1.792 1.308-3.572 2.634C2552.217 686 2552.217 686 2550 686v2a122 122 0 0 1-5.875 4.563 183 183 0 0 0-15.004 12.527C2523.67 710 2523.67 710 2521 710v2c-1.293 1.34-1.293 1.34-3.188 2.938l-2.175 1.843L2513 719q-1.68 1.452-3.355 2.906l-3.52 3.032-1.731 1.505C2500.228 730 2500.228 730 2498 730v2c-1.513 1.373-1.513 1.373-3.613 2.934l-2.283 1.716-2.417 1.788q-2.34 1.744-4.675 3.496l-2.11 1.564C2481 745 2481 745 2479.373 746.692 2478 748 2478 748 2476 748v2c-1.398 1.227-1.398 1.227-3.375 2.625-4.263 3.072-8.297 6.369-12.328 9.738-2.297 1.637-2.297 1.637-4.531 2.18L2454 765l-1 3c-1.324.94-2.66 1.867-4.035 2.73-2.328 1.505-4.544 3.128-6.778 4.77-6.925 5.06-13.942 9.99-20.957 14.927a2094 2094 0 0 0-6.574 4.659c-15.788 11.217-31.795 22.362-48.656 31.914l-2.52 1.512c-3.648 2.189-7.356 4.274-11.058 6.371a230 230 0 0 0-10.047 6.055c-7.289 4.42-15.256 7.598-23.045 11.022-2.974 1.327-5.9 2.747-8.83 4.165-7.739 3.595-15.815 6.29-23.897 8.997q-2.716.916-5.419 1.87c-7.486 2.6-14.986 4.484-22.747 6.07l-3.796.779C2174.662 889.644 2089.184 876.146 2011 857l-2.579-.63c-30.887-7.538-30.887-7.538-44.449-11.414-9.598-2.736-19.267-5.217-28.922-7.747-7.392-1.942-14.743-3.967-22.05-6.209-12.506-3.698-25.085-7.112-37.691-10.452a1752 1752 0 0 1-25.872-7.048l-3.071-.864-6.207-1.747c-23.718-6.672-47.517-13.015-71.374-19.17l-5.562-1.438c-25.243-6.53-50.519-12.478-76.112-17.472a750 750 0 0 1-7.874-1.586c-58.287-12.024-118.023-15.321-177.3-11.353q-2.594.173-5.187.34c-11.72.79-23.281 2.382-34.875 4.228l-3.92.622c-6.84 1.13-13.53 2.504-20.238 4.255-3.185.803-6.38 1.423-9.61 2.014-17.493 3.21-34.48 8.445-51.42 13.796l-3.014.946c-7.062 2.272-13.861 4.997-20.673 7.929l-4.871 2.063-2.277.966-2.29.971-2.48 1.053a272 272 0 0 1-13.582 5.322c-10.311 3.893-19.882 9.555-29.535 14.828l-1.824.993q-2.389 1.305-4.77 2.624C1289 824 1289 824 1287 824v2l-1.688.918c-4.674 2.566-9.224 5.237-13.683 8.164C1270 836 1270 836 1268 836v2l-6 2v2l-1.625.89c-6.61 3.784-12.626 8.176-18.664 12.795C1230.83 864 1230.83 864 1228 864v2h-2v2c-1.582 1.156-1.582 1.156-3.813 2.5-5.173 3.301-9.48 7.308-13.902 11.523C1206 884 1206 884 1204 884v2c-1.363 1.191-1.363 1.191-3.313 2.563a239 239 0 0 0-10.375 8l-2.699 2.19c-3.637 3.127-6.929 6.53-10.238 9.997C1175 911 1175 911 1172 912v2h-2v2c-1.574 1.332-1.574 1.332-3.688 2.813-3.472 2.439-6.352 5.145-9.312 8.187l-10 10-2.688 2.813C1142 942 1142 942 1140 942l-1 3c-3.455 3.7-7.223 7.066-10.965 10.473-6.464 5.929-12.714 12.053-18.904 18.266q-2.581 2.588-5.172 5.165l-3.338 3.342-1.537 1.531c-2.26 2.274-4.34 4.55-6.31 7.083L1091 993h-2l-2 4h-2l-.734 1.73c-1.502 2.694-3.29 4.451-5.516 6.583-2.892 2.813-5.623 5.634-8.188 8.75L1068 1017h-2l-.715 1.715c-1.58 2.808-3.512 4.629-5.848 6.848-4.364 4.27-8.208 8.741-12.015 13.507-3.706 4.484-7.689 8.698-11.656 12.95a226 226 0 0 0-6.141 6.855c-2.275 2.642-4.625 5.2-7.02 7.734l-1.883 1.997a903 903 0 0 1-3.749 3.94c-3.428 3.625-6.343 7.212-8.973 11.454l1.531 1.898 1.969 2.477 1.969 2.46C1015 1093 1015 1093 1015 1095h2a120 120 0 0 1 4.437 6.125c3.509 5.036 7.113 9.95 10.938 14.75a589 589 0 0 1 11.437 14.875c8.028 10.766 16.308 21.334 24.623 31.878l1.377 1.747 1.356 1.72c3.582 4.556 7.055 9.19 10.516 13.839 2.58 3.414 5.222 6.774 7.878 10.129a390 390 0 0 1 11.684 15.535 106 106 0 0 0 3.977 5.086C1107 1213 1107 1213 1107 1215h2c1.253 1.554 2.426 3.172 3.562 4.813 3.619 5.11 7.453 9.964 11.458 14.777 4.98 6.06 4.98 6.06 4.98 8.41l4 2v2h2c1.27 1.512 1.27 1.512 2.812 3.688 11.68 15.331 27.458 29.064 47.188 32.125 1.332.091 2.666.15 4 .187l2.883.152c13.19.398 26.605-1.808 36.883-10.675 7.098-7.66 11.762-17.737 15.234-27.477l1.21-3.383a1130 1130 0 0 0 2.446-6.93c1.331-3.652 2.753-7.253 4.206-10.858 16.74-41.626 16.74-41.626 19.638-52.016 1.083-3.82 2.59-7.237 4.312-10.813 2.4-5.046 4.301-10.068 6-15.375 3.219-10.011 7.082-19.734 10.959-29.505 2.153-5.464 4.252-10.949 6.354-16.432a4089 4089 0 0 1 8.625-22.313c5.649-14.493 11.003-29.097 16.402-43.684q4.733-12.784 9.473-25.566l.845-2.279a2367 2367 0 0 1 9.905-26.283A610 610 0 0 0 1351.5 960a1039 1039 0 0 1 7.75-21.625l.998-2.75.955-2.54.833-2.248C1363 929 1363 929 1366 927c2.087-.267 2.087-.267 4.516-.29l2.76-.04 2.974-.006 3.06-.02q3.203-.015 6.405-.015a945 945 0 0 0 9.816-.078q3.11-.009 6.219-.012l2.974-.043 2.76.018 2.43-.008c2.086.494 2.086.494 3.808 2.398 1.273 2.088 2.217 4.064 3.09 6.346l1.036 2.695L1419 941l1.309 3.367c3.119 8.093 5.923 16.268 8.628 24.508 2.63 8 5.397 15.903 8.541 23.714 2.205 5.488 4.195 11.042 6.173 16.616a2050 2050 0 0 0 6.261 17.339q.72 1.977 1.437 3.955 1.06 2.924 2.128 5.845l1.252 3.443c1.257 3.177 2.728 6.168 4.271 9.213q.766 2.541 1.375 5.125a76 76 0 0 0 3.875 11.313c2.127 4.939 3.952 9.915 5.687 15 4.027 11.745 8.48 23.329 12.912 34.925a939 939 0 0 1 9.12 24.874A358 358 0 0 0 1497.5 1155c2.591 6.56 4.995 13.166 7.305 19.83a268 268 0 0 0 5.07 13.295c2.611 6.405 4.89 12.892 7.125 19.438 2.608 7.632 5.42 15.029 8.71 22.394 1.247 2.942 2.228 5.866 3.165 8.918 4.723 14.7 12.765 32.059 26.883 39.598 6.191 2.772 12.116 4.266 18.844 5.07C1577 1284 1577 1284 1579 1286c.243 1.848.243 1.848.23 4.063l-.005 2.414-.038 2.523-.001 2.523c-.046 6.196-.046 6.196-1.186 8.477q-26.546.07-53.093.104-12.326.014-24.65.047-10.74.03-21.48.037-5.69.003-11.379.023-5.35.02-10.701.015c-1.94.001-3.878.012-5.817.023l-3.476-.008-3.034.005C1442 1306 1442 1306 1440 1304c-.243-1.955-.243-1.955-.23-4.316l.005-2.565.037-2.681.002-2.694c.046-6.604.046-6.604 1.186-7.744a91 91 0 0 1 4.629-.613l2.889-.346q3.002-.349 6.007-.672c6.835-.838 13.346-1.985 18.202-7.236 6.124-13.688-2.49-29.464-7.334-42.374-2.346-6.294-4.565-12.634-6.796-18.97q-1.17-3.32-2.344-6.643c-2.912-8.257-5.789-16.524-8.467-24.86-1.371-4.233-2.815-8.299-4.786-12.286-3.064-1.021-5.127-1.123-8.334-1.12l-3.353-.004-3.679.01h-3.873q-5.259.001-10.518.013-5.495.007-10.99.008-10.407.005-20.814.021-11.848.015-23.695.022-24.372.016-48.744.05l-.62 2.077-.816 2.727-.808 2.702c-1.491 4.919-3.195 9.764-4.881 14.619l-1.187 3.43a856 856 0 0 1-8.25 22.57c-13.568 35.682-13.568 35.682-13.626 47.375l-.042 3.969c.211 3.243.36 4.933 2.23 7.531 8.957 5.577 19.45 7.189 29.855 7.691C1313 1284 1313 1284 1315 1286c.259 1.848.259 1.848.266 4.063l.007 2.414-.023 2.523.023 2.523c0 .399 0 .399-.007 2.415l-.007 2.214C1315 1304 1315 1304 1313 1306c-2.012.248-2.012.248-4.54.246l-2.916.012-3.225-.017-3.408.005c-3.794.003-7.588-.008-11.382-.019h-8.13a8349 8349 0 0 1-17.54-.016c-8.453-.016-16.906-.021-25.36-.024q-20.57-.007-41.143-.036-19.987-.028-39.973-.041l-2.488-.002-12.354-.007q-51.27-.032-102.541-.101c-1.633-3.266-1.143-6.853-1.125-10.437l-.012-2.354c.006-3.32.08-6.039 1.137-9.209l1.677-.136c23.98-2.004 23.98-2.004 30.885-6.551 2.198-3.535 3.015-6.232 2.438-10.313-2.773-7.242-6.286-13.401-11.427-19.19-2.704-3.112-5.12-6.437-7.573-9.747l-1.5-2.014q-1.5-2.014-2.997-4.03-2.266-3.041-4.546-6.07a1058 1058 0 0 1-8.27-11.199c-10.106-13.802-20.485-27.392-30.917-40.95a1330 1330 0 0 1-18.72-24.957c-4.338-5.917-8.799-11.722-13.355-17.472C972 1129 972 1129 972 1127l-4-1-1.242 1.531-1.633 1.969-1.617 1.969L962 1133h-2l-.738 1.703c-1.504 2.737-3.329 4.755-5.45 7.047-2.797 3.047-5.564 6.104-8.25 9.25-3.51 4.042-7.3 7.773-11.132 11.508L932 1165l-2.615 2.66c-2.888 3.513-3.07 6.858-2.968 11.282l-.008 2.343a540 540 0 0 0 .068 7.633q.01 2.671.014 5.343c.013 4.687.057 9.372.107 14.058.036 3.802.049 7.603.06 11.405q.025 6.848.069 13.694l.014 2.601c.174 25.849.174 25.849 4.42 34.204C932 1272 932 1272 932 1274l1.793.879c1.875.953 3.704 1.997 5.52 3.059 10.174 5.059 22.514 5.563 33.687 6.062 3.355 5.65 2.278 12.312 1.625 18.625L974 1305c-2.686 1.343-4.754 1.129-7.763 1.134l-3.718.013-4.1-.002-4.302.01q-5.851.014-11.703.012-4.88.003-9.759.008-11.51.013-23.019.01-11.884.001-23.769.026-10.194.019-20.387.018-6.093-.002-12.185.013-5.73.014-11.458.003-2.104-.003-4.21.007a732 732 0 0 1-5.737-.005l-3.246.002C826 1306 826 1306 823 1304a71 71 0 0 1-.313-8.437l-.01-2.354c.038-3.898.118-5.902 2.323-9.209 2.024-.445 2.024-.445 4.516-.555l2.773-.165 2.961-.155c22.022-1.596 22.022-1.596 28.937-8.875 5.463-9.795 5.962-19.627 5.953-30.61l.01-3.447q.01-5.712.011-11.424l.015-8.196q.02-11.13.024-22.259l.012-13.909q.019-19.27.026-38.541v-4.985l.002-5.004v-2.508q.009-20.11.046-40.221.035-20.667.037-41.336-.001-11.595.025-23.191.023-9.875.012-19.748-.006-5.033.011-10.066c.013-3.646.007-7.292-.004-10.937l.025-3.178c-.06-9.014-1.232-18.698-7.392-25.69-8.63-7.293-19.784-8.313-30.656-8.622-3.641-.128-5.229-.301-8.344-2.378a74 74 0 0 1-.813-8.437l-.154-2.354c-.202-3.977-.294-5.818 1.967-9.209 2.536-.375 2.536-.375 5.808-.374l3.747-.021 4.134.023q2.169-.004 4.336-.011c3.932-.01 7.864 0 11.796.013 4.108.011 8.216.007 12.325.005q10.35 0 20.7.029c7.986.021 15.971.024 23.957.018q11.507-.007 23.014.011 4.905.007 9.809.004 5.772-.003 11.543.022 2.123.006 4.245.002c1.926-.003 3.852.007 5.778.018l3.272.007C972 928 972 928 974 930c.443 2.98.324 5.991.312 9l.05 2.523.001 2.415.01 2.214C974 948 974 948 971 950c-2.306.226-4.622.359-6.938.438-10.871.563-21.47 2.338-30.062 9.562-1.891 2.528-2.998 5.019-4 8l-1.188 3.25c-2.113 9.753-1.971 19.843-2.017 29.78l-.03 4.084q-.04 5.485-.068 10.969-.035 5.754-.076 11.507-.074 10.869-.138 21.737-.076 12.385-.16 24.77-.17 25.45-.323 50.903c4.28-2.426 6.633-4.764 9.562-8.75l2.625-3.508 1.383-1.852c2.437-3.22 4.963-6.368 7.492-9.515l1.543-1.92 3-3.724q1.89-2.348 3.77-4.704c4.815-5.976 9.875-11.63 15.145-17.203 1.815-2.067 3.227-3.89 4.68-6.18L977 1065h2l.812-1.75c1.217-2.306 2.491-4.27 4.188-6.25h2l.742-1.71c1.485-2.703 3.278-4.663 5.383-6.915 5.099-5.558 9.76-11.406 14.414-17.336 1.11-1.383 2.279-2.718 3.461-4.039h2l.73-1.66c1.567-2.888 3.492-5.244 5.582-7.777l2.301-2.81c2.355-2.716 4.83-5.228 7.387-7.753 5.07-5.41 9.875-10.942 14.297-16.895 2.068-2.556 4.364-4.794 6.703-7.105q2.827-3.016 5.625-6.062l1.565-1.7q3.939-4.28 7.86-8.578l1.473-1.61q2.004-2.196 4.004-4.394 2.43-2.611 4.965-5.117c2.729-2.762 5.22-5.678 7.695-8.664 4.388-5.241 8.9-10.332 13.524-15.367a365 365 0 0 0 6.164-6.945c4.783-5.481 4.783-5.481 7.125-7.563h2l.707-2.2c1.523-3.298 3.349-5.118 5.98-7.612 3.092-2.994 6.084-5.975 8.875-9.25 2.525-2.953 5.172-5.71 7.938-8.438 2.704-2.668 5.293-5.355 7.75-8.25 3.825-4.475 8.015-8.569 12.22-12.683 2.282-2.246 4.389-4.376 6.296-6.958L1162 860h2l.753-1.74c1.434-2.6 3.09-4.33 5.204-6.412l2.373-2.354 2.482-2.431 2.448-2.42a3788 3788 0 0 1 8.365-8.24c1.88-1.858 3.58-3.672 5.187-5.778 2.394-2.872 5.01-5.119 7.848-7.54 2.721-2.425 5.283-4.99 7.84-7.585A215 215 0 0 1 1220 803q1.687-1.463 3.371-2.93a3306 3306 0 0 1 13.37-11.573c10.778-9.282 22.024-17.836 33.42-26.34a315 315 0 0 0 7.964-6.282c3.945-3.184 7.999-6.131 12.179-8.998a354 354 0 0 0 7.817-5.635c5.558-4.05 11.237-7.874 17.004-11.617l3.032-1.97c26.608-17.182 54.517-30.765 83.843-42.655l2.884-1.22c9.316-3.803 18.899-6.253 28.644-8.692 2.837-.71 5.67-1.433 8.503-2.158 15.459-3.932 30.791-7.14 46.656-8.992l2.161-.255c73.48-8.596 145.727-1.231 217.902 13.442l2.456.497c9.246 1.882 18.362 4.004 27.462 6.499 4.452 1.175 8.93 2.053 13.457 2.879 6.623 1.265 12.938 2.853 19.352 4.953 4.383 1.302 8.806 2.264 13.273 3.235 9.698 2.12 19.249 4.663 28.812 7.312 9.877 2.733 19.752 5.378 29.738 7.685 7.222 1.676 14.4 3.511 21.575 5.378l3.277.852q8.369 2.185 16.723 4.429c9.377 2.504 18.78 4.909 28.184 7.31l9.12 2.336a1736 1736 0 0 0 31.62 7.8 963 963 0 0 1 17.376 4.283c15.303 3.913 30.693 7.325 46.134 10.634q5.065 1.089 10.125 2.203c12.161 2.674 24.34 5.224 36.566 7.59l3.471.676C2157.375 781.109 2252.038 790.71 2359 762l2.825-.937c14.797-4.91 29.138-10.27 43.175-17.063l2.162-1.043c9.746-4.731 19.307-9.808 28.838-14.957l2.785-1.484c11.279-6.056 22.53-12.353 32.899-19.88 2.523-1.782 5.121-3.393 7.753-5.011 5.056-3.172 9.573-6.8 14.141-10.633 2.687-2.21 5.519-4.077 8.422-5.992 2.413-1.885 4.793-3.81 7.176-5.734 37.305-29.927 93.515-69.808 141.445-39.168M1376 985a213 213 0 0 0-7.875 20.625c-2.297 7.062-4.852 13.98-7.58 20.885a455 455 0 0 0-8.916 24.642c-1.878 5.653-3.912 11.248-5.942 16.848-2.7 7.468-5.38 14.941-8 22.438-1.507 4.313-3.067 8.588-4.812 12.812-1.93 4.694-3.347 9.498-4.793 14.36-1.479 4.633-3.283 9.115-5.129 13.613C1322 1134 1322 1134 1322 1138q20.653.034 41.307.052 9.59.007 19.179.023 9.249.016 18.498.02 3.534.003 7.068.01 4.938.01 9.877.009l2.97.01 2.716-.004 2.36.003C1428 1138 1428 1138 1431 1137c-.984-5.28-2.332-10.064-4.316-15.059-2.492-6.384-4.74-12.825-6.934-19.316-5.358-15.703-11.018-31.294-16.685-46.888l-2.112-5.815c-.34-.937-.68-1.875-1.032-2.84a2054 2054 0 0 1-6.956-19.512 838 838 0 0 0-5.465-15.07c-1.787-4.799-3.548-9.601-5.207-14.445l-.82-2.385q-.77-2.249-1.52-4.504c-1.732-5.056-1.732-5.056-3.953-6.166"/><path fill="#931417" d="M1794 520q2.253.55 4.508 1.098c10.632 2.6 21.12 5.41 31.492 8.902l6.258 2.086q5.25 1.749 10.498 3.503c10.149 3.391 10.149 3.391 14.885 4.9 7.013 2.252 13.636 4.852 20.261 8.081 2.906 1.341 5.844 2.47 8.846 3.573 18.755 7.14 36.6 16.204 54.114 25.933 4.314 2.393 8.633 4.713 13.075 6.861 16.614 8.143 32.52 18.072 48.344 27.649l2.087 1.26q1.953 1.184 3.901 2.375c2.566 1.556 4.872 2.826 7.731 3.779v2l2.375.625c3.025 1.148 5.284 2.312 8 4 4.463 2.766 9.04 5.131 13.75 7.438 4.846 2.374 9.553 4.757 14.004 7.832 2.212 1.307 4.534 2.242 6.901 3.232 3.634 1.61 7.098 3.55 10.595 5.436 7.86 4.19 15.823 8.102 23.883 11.892a470 470 0 0 1 14.617 7.17c6.91 3.487 14.004 6.448 21.152 9.402a369 369 0 0 1 10.737 4.669c8.339 3.756 16.854 6.795 25.506 9.75a147 147 0 0 1 9.543 3.616c7.002 2.885 14.299 4.984 21.534 7.199 2.193.674 4.38 1.365 6.567 2.06 11.226 3.5 22.641 5.846 34.167 8.134a272 272 0 0 1 7.087 1.557c18.939 4.224 37.867 5.39 57.207 5.426l2.772.017c12.434.055 24.343-.989 36.593-3.116 2.641-.446 5.292-.8 7.948-1.152 5.667-.962 11.16-2.504 16.687-4.062l2.64-.741c6.079-1.765 11.893-3.959 17.735-6.384a1865 1865 0 0 1 4.875-1.937L2402 702l2.734-1.082c47.43-19.164 47.43-19.164 57.266-33.918a271 271 0 0 1 5.188-2.883c2.66-1.64 4.644-3.887 6.812-6.117h2l.676-1.625c2.089-3.746 5.071-6.8 7.955-9.953 3.332-3.82 3.332-3.82 3.502-6.586-1.664-2.697-3.682-3.684-6.445-5.211l-3.313-1.848c-3.035-1.598-6.095-3.106-9.187-4.59-7.532-3.712-14.322-8.384-21.188-13.187l-2.36-1.643q-3.673-2.57-7.327-5.17c-.767-.538-1.534-1.077-2.323-1.633-3.998-2.874-6.994-5.603-9.99-9.554a97 97 0 0 0-4.75-3.687c-2.422-1.762-2.422-1.762-4.25-3.313v-2l-3-1c-4-4.457-4-4.457-4-7l-3-1c-10.096-9.252-20.36-23.53-26-36v-4c4.478.515 6.784 2.105 10.188 5l2.94 2.48c2.546 2.234 5.024 4.52 7.497 6.832 9.977 9.07 21.392 16.565 33.375 22.688l3.066 1.734c31.703 17.854 69.865 18.357 105.307 20.944 11.912.881 23.456 2.415 35.16 4.853 2.666.507 5.331.892 8.022 1.25l2.769.371q2.578.337 5.16.633c6.887.913 11.21 3.906 16.391 8.465l1.805 1.578L2614 617c-.672 1.934-.672 1.934-2 4-2.328.726-2.328.726-5.25 1.055l-3.258.413-3.492.407c-15.538 2.101-29.614 5.727-43 14.125l-1.853 1.144c-13.813 8.561-26.848 18.122-39.327 28.528C2514 668 2514 668 2512 668l-1 3a132 132 0 0 1-5 3l-1.375 1.438c-2.062 1.982-4.44 3.158-6.934 4.527C2496 681 2496 681 2494 683c-1.845 1.845-3.307 2.824-5.562 4.063C2485 689 2485 689 2483.586 690.457c-1.957 1.904-3.97 2.923-6.398 4.168-4.34 2.308-8.458 4.799-12.563 7.5-11.502 7.547-23.625 14.113-35.653 20.776a418 418 0 0 0-4.8 2.724c-5.771 3.277-11.583 5.803-17.805 8.102-3.4 1.286-6.722 2.694-10.055 4.148A2089 2089 0 0 1 2389 741l-1.921.82c-20.828 8.79-43.02 14.407-65.079 19.18l-3.216.725c-10.718 2.304-21.438 3.489-32.347 4.462l-2.903.262c-58.216 5.129-117.198-1.013-174.534-11.449l-3.051-.544c-33.854-6.075-67.448-13.9-100.879-21.958q-3.142-.756-6.288-1.507c-22.066-5.276-44.06-10.826-66.034-16.474-10.335-2.653-20.67-5.256-31.076-7.621-4.02-.98-7.966-2.127-11.922-3.333-6.846-2.061-13.722-3.793-20.687-5.407-8.891-2.077-17.725-4.366-26.563-6.656-11.935-3.089-23.882-6.087-35.89-8.888-5.145-1.206-10.283-2.442-15.422-3.674l-2.964-.708a1404 1404 0 0 1-16.689-4.113c-9.73-2.446-19.503-4.7-29.285-6.93l-2.869-.655c-17.597-4.006-35.26-7.542-52.995-10.875a272 272 0 0 1-8.507-1.79 112 112 0 0 0-9.754-1.742 734 734 0 0 1-14.012-2.035c-67.616-10.48-138.368-14.275-206.113-3.09l-3.896.639c-51.882 8.564-51.882 8.564-70.136 15.617-1.935.731-3.88 1.41-5.84 2.072-9.088 3.074-17.989 6.561-26.878 10.172l-3.37 1.366c-6.721 2.754-13.334 5.686-19.915 8.759-3.16 1.466-6.345 2.86-9.543 4.239-12.018 5.202-23.542 11.287-34.969 17.671a372 372 0 0 1-10.58 5.649c-7.112 3.68-13.94 7.596-20.583 12.073-4.1 2.743-4.1 2.743-6.29 2.743v2l-6 2v2l-1.766.996c-10.841 6.29-20.515 14.132-30.234 22.004q-1.86 1.485-3.723 2.969c-7.238 5.794-14.29 11.698-21.028 18.073-2.264 2.142-4.535 4.185-6.976 6.126C1164 786 1164 786 1161.813 788.75L1160 791h-2v2h-2l-.273 1.793c-.912 2.769-2.099 3.697-4.352 5.52a79.5 79.5 0 0 0-8 7.562c-2.925 3.006-5.064 4.02-9.375 4.125-.84-13.012 4.678-20.464 13-30 5.816-6.947 11.36-14.069 16.826-21.29 4.723-6.203 9.652-12.22 14.68-18.177l1.693-2.021 1.495-1.767c1.37-1.83 2.3-3.699 3.306-5.745 1.516-1.422 1.516-1.422 3.25-2.75 2.68-2.194 4.691-4.36 6.688-7.187 2.667-3.748 5.71-6.521 9.234-9.454 2.247-1.978 3.98-4.263 5.828-6.609h2v-2h2v-2c1.258-1.27 1.258-1.27 3.125-2.812a208 208 0 0 0 8.418-7.504l1.88-1.773a939 939 0 0 0 3.74-3.555l1.763-1.66 1.575-1.5C1236 683 1236 683 1239 682q2.506-2.494 5-5c2.5-2.042 5.09-3.96 7.688-5.875l2.135-1.585C1269.42 658 1269.42 658 1272 658v-2h2v-2l1.51-.915c16.43-9.966 16.43-9.966 23.506-14.765 7.43-4.944 15.272-9.169 23.152-13.343a674 674 0 0 0 5.738-3.106c16.94-9.19 34.526-17.202 52.883-23.133 2.429-.81 4.815-1.71 7.211-2.613 4.558-1.665 9.16-3.115 13.816-4.477l2.245-.657c7.923-2.302 15.887-4.434 23.877-6.491l2.267-.585c16.873-4.338 33.859-7.618 51.046-10.453q3.394-.571 6.776-1.208c11.127-1.967 22.282-2.979 33.535-3.879l2.35-.189A1604 1604 0 0 1 1540 567l2.116-.153c14.43-1.027 28.86-1.045 43.322-1.034h3.801c20.32.013 40.509.499 60.761 2.187l2.772.227c5.428.463 10.825 1.09 16.228 1.773l3.386.414c44.688 5.474 88.533 14.195 132.369 24.372a3180 3180 0 0 0 15.237 3.487l11.363 2.579c7.206 1.633 14.393 3.322 21.555 5.14 7.67 1.942 15.38 3.662 23.121 5.3q3.292.7 6.58 1.415l4.244.902 3.802.812c2.878.499 5.435.702 8.343.579l-2.608-1.006a25717 25717 0 0 1-14.016-5.414c-7.468-2.882-14.923-5.79-22.349-8.78-5.262-2.114-10.539-4.143-15.902-5.987l-2.45-.849c-2.89-.995-5.782-1.98-8.675-2.964l-3.637-1.24c-30.77-10.47-61.595-19.822-93.363-26.76l-3.875-.848c-14.24-3.07-28.538-5.658-42.937-7.84l-3.725-.576A469 469 0 0 0 1672 551l-3.337-.387c-22.336-2.502-44.458-3.055-66.918-2.936-3.42.014-6.838.009-10.257.004-19.916-.023-39.645.451-59.488 2.319l-2.902.27a914 914 0 0 0-18.598 1.98l-2.785.317c-22.752 2.61-45.258 6.423-67.752 10.687q-3.851.727-7.712 1.422c-11.865 2.155-23.613 4.797-35.376 7.449q-4.56 1.026-9.122 2.049-2.811.63-5.623 1.265c-4.363.979-8.707 1.886-13.13 2.561l-1-3c10.832-6.417 21.71-12.543 33.04-18.035 2.02-.994 4.02-2.021 6.019-3.059 7.749-4.006 15.422-7.363 23.711-10.14 3.79-1.302 7.547-2.693 11.31-4.066 14.613-5.322 29.17-10.167 44.299-13.805q3.578-.884 7.121-1.895c6.767-1.933 13.636-3.454 20.5-5l2.695-.607c87.792-19.542 187.414-20.86 277.305 1.607"/><path fill="#981014" d="M2342 12c0 4.81-1.256 6.158-4 10l-1.437 2.563C2335 27 2335 27 2332.672 29.246c-2.782 2.867-4.895 5.878-6.985 9.254l-1.152 1.832a917 917 0 0 0-2.358 3.776 707 707 0 0 1-3.501 5.556l-2.176 3.461-1.969 3.133c-1.305 2.338-2.08 4.129-2.531 6.742h-2l-.742 2.04c-1.531 3.604-3.434 6.946-5.383 10.335-6.316 11.132-12.476 22.165-17.355 34.016a288 288 0 0 1-3.848 8.691c-2.916 6.383-5.589 12.857-8.235 19.356l-1.42 3.447a281 281 0 0 0-7.133 19.497c-1.111 3.29-2.504 6.432-3.884 9.618-5.675 15.421-10.117 31.18-14.231 47.076a381 381 0 0 1-2.105 7.662c-3.741 13.268-6.155 26.787-8.589 40.342a834 834 0 0 1-2.213 11.782c-1.68 8.698-2.971 17.424-4.115 26.207-.305 2.337-.622 4.672-.94 7.007-3.09 23.119-4.14 46.082-4.068 69.38.012 3.675.005 7.35-.007 11.026-.048 18.257.525 36.328 2.268 54.518l.23 2.398c.434 4.42.952 8.823 1.52 13.227l.252 1.967C2234.427 496.885 2241.18 531.44 2253 564q.752 2.238 1.492 4.48a278 278 0 0 0 13.578 33.566c.97 2.038 1.906 4.09 2.836 6.145 5.613 12.336 12.226 23.748 19.883 34.938 1.627 2.513 2.874 5.196 4.211 7.871l2 1a276 276 0 0 1 2.781 4.953c1.772 2.975 3.897 5.64 6.047 8.348C2307 667 2307 667 2307 669h2c1.156 1.512 1.156 1.512 2.5 3.688 3.099 4.844 6.551 9.324 10.16 13.793 2.177 2.754 3.886 4.98 4.34 8.519-3.04 1.39-4.2.925-7.398-.266a172 172 0 0 1-3.977-1.984l-2.135-1.084c-6.947-3.67-12.907-8.303-18.9-13.345-3.224-2.679-6.579-5.198-9.895-7.762L2282 669v-2l-1.77-.8c-3.86-2.076-6.807-5.213-9.98-8.2l-2.113-1.945-1.996-1.867-1.828-1.708C2263 651 2263 651 2263 649l-1.937-.812C2259 647 2259 647 2258 644a178 178 0 0 0-4-2c-2.25-2-2.25-2-4-4v-2l-3-1c-1.473-1.46-1.473-1.46-3.062-3.375-2.818-3.332-5.716-6.556-8.688-9.75-4.384-4.799-8.427-9.796-12.4-14.937-2.431-3.144-4.901-6.21-7.537-9.188C2213 595 2213 595 2213 593h-2c-1.262-1.434-1.262-1.434-2.687-3.437-2.073-2.862-4.175-5.674-6.376-8.438-4.247-5.426-8.232-11.043-12.23-16.654-2.405-3.358-4.812-6.658-7.496-9.8-2.179-2.632-3.487-5.232-4.941-8.304-1.884-3.512-4.199-6.696-6.493-9.95-6.906-9.826-13.593-19.843-19.187-30.48-2.096-3.873-4.343-7.65-6.59-11.437a449 449 0 0 1-16.012-29.562c-1.847-3.698-3.791-7.34-5.74-10.985-4.543-8.505-8.623-17.01-12.248-25.953q-1.217-2.907-2.437-5.812l-1.223-2.958a940 940 0 0 0-2.961-7.054c-10.592-25.112-18.35-51.103-24.731-77.574a171 171 0 0 0-1.77-6.543c-4.04-14.323-5.224-29.309-6.878-44.059l-.326-2.556c-1.02-8.544-.916-17.164-.924-25.757l-.004-2.564c.004-12.173.48-23.985 2.835-35.965.425-2.188.791-4.38 1.146-6.58 1.308-7.898 3.267-15.164 6.273-22.578l1.121-3a509 509 0 0 1 3.879-10l1.418-3.61c5.113-12.556 11.685-27.969 21.582-37.39 1.098-1.684 1.098-1.684 2.063-3.437l.972-1.747c.965-1.816.965-1.816 1.86-3.84 1.287-2.302 2.681-3.51 4.73-5.163 3.072-2.59 5.752-5.27 8.375-8.313 3.175-3.67 6.525-6.874 10.238-9.992C2138 100 2138 100 2139.605 98.305 2141 97 2141 97 2143 97l.688-1.812c1.668-2.781 3.44-3.752 6.312-5.188h2v-2c5.94-5.559 13.129-9.718 20-14a1655 1655 0 0 0 7.125-4.562l1.808-1.159c3.372-2.166 6.7-4.385 10.005-6.654 3.54-2.376 7.098-4.026 11.062-5.625a297 297 0 0 0 4.563-2.25l2.578-1.297q3.082-1.568 6.156-3.156c9.067-4.634 18.265-8.396 27.875-11.762l2.206-.773q2.089-.73 4.184-1.444c4.112-1.422 8.091-3.024 12.083-4.76 6.676-2.806 13.475-4.693 20.48-6.495l3.925-1.028a909 909 0 0 1 43.395-10.191l2.329-.487c3.444-.553 6.745-.486 10.226-.357"/><path fill="#321e1f" d="m1370.516 926.71 2.76-.04 2.974-.006 3.06-.02q3.202-.015 6.405-.015a945 945 0 0 0 9.816-.078q3.11-.009 6.219-.012l2.974-.043 2.76.018 2.43-.008c2.086.494 2.086.494 3.808 2.398 1.273 2.088 2.217 4.064 3.09 6.346l1.036 2.695L1419 941l1.309 3.367c3.119 8.093 5.923 16.268 8.629 24.508 2.628 8 5.396 15.903 8.54 23.714 2.205 5.488 4.195 11.042 6.173 16.616a2050 2050 0 0 0 6.261 17.339q.72 1.977 1.437 3.955 1.06 2.924 2.128 5.845l1.252 3.443c1.257 3.177 2.728 6.168 4.271 9.213q.766 2.541 1.375 5.125a76 76 0 0 0 3.875 11.312c2.127 4.94 3.952 9.916 5.688 15 4.026 11.746 8.479 23.33 12.911 34.926a939 939 0 0 1 9.12 24.874A358 358 0 0 0 1497.5 1155c2.591 6.56 4.995 13.166 7.305 19.83a268 268 0 0 0 5.07 13.295c2.611 6.405 4.89 12.892 7.125 19.437 2.608 7.633 5.42 15.03 8.71 22.395 1.247 2.942 2.228 5.866 3.165 8.918 4.723 14.7 12.765 32.059 26.883 39.598 6.191 2.772 12.116 4.266 18.844 5.07C1577 1284 1577 1284 1579 1286c.243 1.848.243 1.848.23 4.062l-.005 2.415-.037 2.523-.002 2.523c-.046 6.196-.046 6.196-1.186 8.477q-26.546.07-53.093.104-12.326.014-24.65.047-10.74.03-21.48.037-5.69.003-11.379.023-5.35.02-10.701.015c-1.94.001-3.878.012-5.817.023l-3.476-.008-3.034.005C1442 1306 1442 1306 1440 1304c-.243-1.955-.243-1.955-.23-4.316l.005-2.565.037-2.682.002-2.693c.046-6.604.046-6.604 1.186-7.744a91 91 0 0 1 4.629-.613l2.889-.346a708 708 0 0 1 6.007-.672c6.835-.838 13.346-1.985 18.202-7.236 6.124-13.688-2.49-29.464-7.334-42.374-2.346-6.294-4.565-12.634-6.796-18.97q-1.17-3.32-2.344-6.643c-2.912-8.257-5.789-16.524-8.467-24.86-1.371-4.233-2.815-8.299-4.786-12.286-3.064-1.021-5.127-1.123-8.334-1.12l-3.353-.004-3.679.01h-3.873q-5.259.001-10.518.013c-3.663.006-7.327.006-10.99.008q-10.407.004-20.814.021-11.848.015-23.695.022-24.372.016-48.744.05l-.62 2.077-.816 2.727-.808 2.702c-1.491 4.919-3.195 9.764-4.881 14.619l-1.187 3.43a856 856 0 0 1-8.25 22.57c-13.568 35.682-13.568 35.682-13.626 47.375l-.042 3.969c.211 3.243.36 4.933 2.23 7.531 8.957 5.577 19.45 7.189 29.855 7.691C1313 1284 1313 1284 1315 1286c.259 1.848.259 1.848.266 4.062l.007 2.415-.023 2.523.023 2.523c0 .399 0 .399-.007 2.414l-.007 2.215C1315 1304 1315 1304 1313 1306c-2.012.248-2.012.248-4.54.246l-2.916.012-3.225-.017-3.408.005c-3.794.003-7.588-.008-11.382-.019h-8.13q-8.77.003-17.54-.016c-8.453-.016-16.906-.021-25.36-.024a38844 38844 0 0 1-41.143-.036q-19.986-.028-39.973-.041l-2.488-.002-12.354-.007q-51.27-.033-102.541-.101c-1.633-3.266-1.143-6.853-1.125-10.438l-.012-2.353c.006-3.32.08-6.039 1.137-9.209l1.677-.136c23.98-2.004 23.98-2.004 30.886-6.552 2.197-3.534 3.014-6.23 2.437-10.312-2.773-7.242-6.286-13.401-11.427-19.19-2.704-3.112-5.12-6.437-7.573-9.748l-1.5-2.013q-1.5-2.014-2.997-4.03-2.266-3.041-4.546-6.07a1058 1058 0 0 1-8.27-11.199c-9.6-13.11-19.458-26.019-29.346-38.913q-4.867-6.349-9.715-12.711a1470 1470 0 0 0-5.04-6.54l-3.274-4.274-1.531-1.96c-2.125-2.793-3.66-4.98-4.758-8.344-1.648-4.846-5.052-8.453-8.298-12.354-2.617-3.345-3.71-4.925-3.803-9.287 1.17-3.655 2.552-5.878 5.015-8.805l2.153-2.62L980 1107h2v-2c1.968-1.86 4.056-3.534 6.152-5.246C990 1098 990 1098 991 1095h2l.25-1.875.75-2.125 1.875-.875c3.086-1.634 3.77-4.007 5.125-7.125h3v2h2c2.84 3.675 4 5.269 4 10l1.734.32c7.74 2.322 12.805 9.33 17.188 15.68 2.163 3.122 4.439 6.123 6.765 9.125l3.889 5.028c2.653 3.44 5.287 6.895 7.924 10.347 14.733 19.273 14.733 19.273 22.063 28.562 4.125 5.23 8.143 10.528 12.12 15.872 2.58 3.414 5.223 6.774 7.88 10.128a390 390 0 0 1 11.683 15.536 106 106 0 0 0 3.977 5.086C1107 1213 1107 1213 1107 1215h2c1.253 1.554 2.426 3.172 3.563 4.812 3.618 5.111 7.452 9.965 11.457 14.778 4.98 6.06 4.98 6.06 4.98 8.41l4 2v2h2c1.27 1.512 1.27 1.512 2.813 3.687 11.68 15.332 27.457 29.065 47.187 32.125 1.332.092 2.666.151 4 .188l2.883.152c13.19.398 26.605-1.808 36.883-10.675 7.098-7.66 11.762-17.737 15.234-27.477l1.21-3.383q1.235-3.46 2.446-6.93c1.331-3.652 2.753-7.253 4.206-10.858 16.74-41.626 16.74-41.626 19.638-52.017 1.083-3.819 2.59-7.236 4.313-10.812 2.399-5.046 4.3-10.068 6-15.375 3.218-10.011 7.08-19.734 10.958-29.505 2.153-5.464 4.252-10.949 6.354-16.433a4089 4089 0 0 1 8.625-22.312c5.649-14.493 11.003-29.097 16.402-43.684a39683 39683 0 0 1 9.473-25.566l.845-2.279a2367 2367 0 0 1 9.905-26.284A610 610 0 0 0 1351.5 960a1036 1036 0 0 1 7.75-21.625l.998-2.75.955-2.54.833-2.248c1.96-3.734 4.636-4.091 8.48-4.128M1376 985a213 213 0 0 0-7.875 20.625c-2.297 7.062-4.852 13.98-7.58 20.885a455 455 0 0 0-8.916 24.642c-1.878 5.653-3.912 11.248-5.941 16.848-2.7 7.468-5.38 14.941-8 22.437-1.508 4.314-3.068 8.589-4.813 12.813-1.93 4.694-3.347 9.498-4.793 14.36-1.479 4.633-3.283 9.115-5.129 13.613C1322 1134 1322 1134 1322 1138q20.653.034 41.307.052 9.59.007 19.179.023 9.249.016 18.498.02 3.534.003 7.068.01 4.938.01 9.877.009l2.97.01 2.716-.004 2.36.003C1428 1138 1428 1138 1431 1137c-.984-5.28-2.332-10.064-4.316-15.059-2.492-6.384-4.74-12.825-6.934-19.316-5.358-15.703-11.018-31.294-16.685-46.888l-3.144-8.656a2054 2054 0 0 1-6.956-19.51 838 838 0 0 0-5.465-15.071c-1.787-4.799-3.548-9.601-5.207-14.445l-.82-2.385q-.77-2.249-1.52-4.504c-1.732-5.056-1.732-5.056-3.953-6.166"/><path fill="#322426" d="m430.029 927.723 2.583.01 2.735-.014c3.045-.013 6.09-.011 9.134-.01l6.53-.02a6420 6420 0 0 1 17.807-.024q5.579-.001 11.158-.01a23928 23928 0 0 1 39.03-.026h2.02c11.389.001 22.777-.021 34.166-.051q15.585-.038 31.171-.036c6.189 0 12.377-.005 18.566-.026 100.584-.324 100.584-.324 134.133 32.109 16.673 17.886 26.424 41.551 26.16 66.18-1.053 15.117-3.617 30.96-11.222 44.195l-1.492 2.645c-9.365 15.66-23.946 29.626-40.508 37.355l-1.76.842c-22.212 10.562-45.882 14.898-70.24 17.158l1 5h2v2h2c1.262 1.434 1.262 1.434 2.687 3.437a313 313 0 0 0 6.75 9l1.75 2.25A616 616 0 0 0 660 1154.5l1.937 2.437 1.778 2.215C665 1161 665 1161 665 1163h2a136 136 0 0 1 5.062 6.312l3 3.887 1.508 1.959c4.26 5.488 8.712 10.828 13.211 16.12l1.404 1.659q1.967 2.319 3.944 4.63C697 1200 697 1200 697 1202h2l.812 2.437L701 1207l3 1c1.57 1.742 1.57 1.742 3.125 3.875l1.57 2.117C710 1216 710 1216 711 1219h2c1.305 1.477 1.305 1.477 2.875 3.625 3.232 4.28 6.626 8.376 10.125 12.437l1.582 1.84a889 889 0 0 0 8.293 9.473c2.221 2.518 4.262 5.107 6.25 7.812 2.393 3.244 4.949 6.026 7.875 8.813l1.703 1.836c11.778 12.496 25.572 17.634 42.363 18.918C796 1284 796 1284 797 1285c.099 1.477.13 2.958.133 4.437l.004 2.711-.012 2.852.012 2.852-.004 2.71-.004 2.504C797 1305 797 1305 796 1306a195 195 0 0 1-7.929.193l-2.518.025q-4.143.036-8.287.055l-2.854.017q-7.477.039-14.956.06c-5.153.017-10.305.062-15.458.112-3.958.034-7.917.046-11.875.051q-2.85.01-5.698.046c-2.66.032-5.318.032-7.979.024l-2.377.05c-4.063-.046-5.825-.43-8.995-3.06L705 1301l-1.633-1.746c-6.642-7.529-12.747-15.51-18.84-23.484a714 714 0 0 0-15.886-20.039 316 316 0 0 1-9.199-11.804c-2.18-2.912-4.435-5.763-6.692-8.615a1230 1230 0 0 1-10.938-14.062 754 754 0 0 0-10.957-13.934c-4.555-5.686-8.979-11.475-13.418-17.254-15.958-20.768-15.958-20.768-23.687-30.375a660 660 0 0 1-8.688-11.062l-1.266-1.643a412 412 0 0 1-6.327-8.443l-1.227-1.674a941 941 0 0 1-3.332-4.6C571 1130 571 1130 568 1129a65 65 0 0 0-4.196-.114h-2.547l-2.737.016-2.813.005c-2.965.005-5.93.018-8.895.03q-3.014.009-6.029.014-7.391.017-14.783.049a16902 16902 0 0 0-.207 50.62q-.028 11.752-.095 23.505a4499 4499 0 0 0-.074 20.503c-.006 3.614-.018 7.228-.047 10.843a1429 1429 0 0 0-.031 12.141l-.044 3.582c.04 8.185.836 17.196 6.114 23.84 4.07 3.958 8.98 5.578 14.384 6.966l1.868.519c2.165.488 4.139.653 6.355.727l2.38.1q2.466.091 4.93.172l2.377.103 2.16.076C568 1283 568 1283 571 1285c.34 2.063.34 2.063.293 4.57l-.03 2.715c-.024.937-.05 1.874-.076 2.84l-.04 2.863A624 624 0 0 1 571 1305c-2.687 1.343-4.76 1.132-7.77 1.14l-3.722.018-4.106.003-4.306.015q-5.857.019-11.715.024l-7.311.012q-11.43.02-22.858.027-13.212.007-26.424.05-10.2.033-20.402.034-6.098 0-12.197.025-5.733.023-11.465.01-2.107-.002-4.216.013c-1.912.013-3.825.005-5.738-.004l-3.25.005L423 1306c-3.88-5.82-2.306-14.325-1-21 1.68-1.68 3.871-1.388 6.18-1.613l3.257-.346q3.378-.348 6.758-.672c7.422-.804 13.947-2.4 20.805-5.369l2.242-.97c2.833-1.66 2.924-3.917 3.758-7.03l.75-2.09c5.178-14.96 3.399-32.46 3.395-48.058l.01-7.56q.011-9.15.012-18.303 0-7.445.006-14.891.013-21.17.012-42.337v-4.598q.002-18.462.023-36.924.023-19.013.02-38.027-.001-10.652.014-21.304.014-10.017.003-20.034-.003-3.663.007-7.325c.088-37.718.088-37.718-7.127-48.299-8.991-6.474-18.548-7.88-29.32-8.618l-2.496-.175-2.225-.126c-2.336-.371-4.031-1.179-6.084-2.331q-.08-4.437-.125-8.875l-.05-2.55-.02-2.442-.032-2.254c.578-4.787 4.339-4.123 8.256-4.156M525 959c-1.306 2.612-1.123 4.516-1.12 7.442l-.004 3.501.01 3.86v4.05a5571 5571 0 0 0 .013 11.014q.007 5.751.008 11.503.005 10.896.021 21.791.016 12.403.022 24.805.016 25.518.05 51.034 20.187.141 40.374.207 9.376.03 18.754.095c6.05.044 12.099.067 18.148.078q3.437.01 6.873.043c25.805.236 56.045-2.361 75.726-21.138 7.38-7.936 12.557-16.054 16.125-26.285l1.066-2.852c2.15-7.247 2.116-14.587 2.121-22.086l.038-2.841c.012-6.016-.634-11.423-2.225-17.221l-.86-3.188C698 996.055 695.35 990.597 691 985l-1.59-2.086c-12.572-15.441-32.531-21.383-51.596-23.654-9.54-.882-19.162-.618-28.732-.553q-3.659.009-7.317.013c-6.354.011-12.708.04-19.061.074-6.51.03-13.02.044-19.53.06q-19.088.048-38.174.146"/><path fill="#332426" d="m2019.439 927.723 2.317.01 2.457-.014c2.734-.013 5.467-.011 8.201-.01l5.865-.02c5.333-.018 10.665-.022 15.998-.024q5.017-.001 10.034-.01 17.565-.029 35.13-.026c10.84.002 21.678-.02 32.516-.051q14.021-.039 28.043-.036c5.562 0 11.124-.005 16.686-.026 30.964-.111 62.282-.077 92.314 8.484 1.079.26 2.158.52 3.27.79 17.534 4.45 34.763 12.063 49.73 22.21l2.977 2c13.77 9.8 27.71 22.56 38.023 36v2h2c2.602 3.128 4.748 6.615 7 10l2.145 3.113c14.072 20.753 22.18 44.388 26.855 68.887l.648 3.328c4.318 23.905 4.35 50.854-.648 74.672l-.602 2.871c-5.172 23.835-13.27 50.24-29.398 69.129l-2.121 2.84c-8.047 10.76-16.672 21.569-27.621 29.508-3.699 2.706-7.165 5.697-10.68 8.636-2.45 1.917-4.883 3.468-7.578 5.016l-3.145 1.945c-18.44 11.107-38.995 17.258-59.855 22.055l-2.12.507c-27.364 6.446-56.643 4.782-84.543 4.729-5.611-.01-11.222-.007-16.833-.007q-14.082-.002-28.162-.023-16.283-.023-32.565-.02-17.395-.001-34.791-.016l-10.005-.003a8981 8981 0 0 1-15.65-.017q-2.874-.004-5.749-.004-3.907 0-7.817-.012l-2.32.004c-5.217-.024-5.217-.024-7.445-1.138-.029-3.312-.047-6.625-.063-9.938l-.025-2.865-.01-2.724-.016-2.524C2012 1285 2012 1285 2013 1284a82 82 0 0 1 4.559-.43l2.86-.222q2.966-.22 5.93-.422c8.549-.68 16.39-2.16 23.651-6.926h2c1.527-2.876 2.625-5.695 3.562-8.813.25-.81.498-1.621.754-2.457 1.75-6.985 1.828-13.759 1.818-20.924 0-.56 0-.56.007-3.394q.007-5.622.004-11.245l.01-8.067q.012-9.819.012-19.636 0-7.986.006-15.972.014-22.665.012-45.332v-4.937q.002-19.797.023-39.595.023-20.353.02-40.705-.001-11.418.014-22.834.015-9.723.005-19.447-.007-4.954.005-9.908c.008-3.593.003-7.185-.005-10.778l.016-3.113c-.05-10.626-.16-22.348-7.7-30.468-8.313-6.26-18.777-6.971-28.796-7.692l-2.52-.19-2.26-.146C2015 950 2015 950 2012 948c-.372-1.848-.372-1.848-.363-4.063l.002-2.414.048-2.523-.01-2.523c.059-6.538.53-8.687 7.762-8.754M2115 959a124130 124130 0 0 0-.165 131.207l-.002 2.786a45826 45826 0 0 1-.064 44.663q-.043 22.911-.051 45.823-.005 14.14-.042 28.279-.023 9.694-.017 19.388c.002 3.73 0 7.459-.017 11.188-.017 4.044-.011 8.087-.003 12.131l-.026 3.57c.033 6.075.332 10.645 3.387 15.965 1.958 1.113 1.958 1.113 4.148 1.423.8.12 1.598.24 2.421.362 3.7.327 7.342.481 11.056.445h2.45c2.641-.003 5.283-.022 7.925-.043l5.587-.026c5.805-.032 11.609-.094 17.413-.161l2.816-.03c52.471-.554 52.471-.554 75.184-6.97l2.21-.574c19.686-5.745 37.796-18.824 51.79-33.426l2.437-2.313C2305 1231 2305 1231 2305 1229l3-1a102 102 0 0 0 4.687-6.688l1.334-2.044c13.52-20.94 21.633-42.5 25.614-67.05.275-1.671.572-3.339.88-5.004 1.562-8.99 1.845-17.81 1.797-26.902 0-.38 0-.38-.007-2.31-.184-36.633-7.585-71.239-28.305-102.002l-2-3.04a164 164 0 0 0-5.625-7.835l-1.79-2.367L2303 1001h-2l-.648-1.648c-10.688-18.596-37.8-29.387-57.41-34.712-8.537-2.173-17.214-3.505-25.942-4.64l-2.063-.271c-5.52-.673-10.938-.866-16.496-.843h-2.753q-4.455.002-8.91.016l-6.217.005q-8.145.006-16.29.024-8.325.014-16.652.02-16.31.016-32.619.049"/><path fill="#332628" d="M1945.71 927.372c3.073.068 6.145.126 9.218.185q2.947.062 5.896.127l2.767.05c6.294.151 6.294.151 7.409 1.266.25 3.138.185 6.29.188 9.438l.037 2.681.005 2.565.013 2.36C1971 948 1971 948 1969 950c-1.812.363-1.812.363-4 .527l-2.425.207-2.575.204c-19.97 1.87-19.97 1.87-27 9.062-12.291 16.508-8.165 43.677-8.2 63.065q-.014 5.689-.035 11.378-.032 9.83-.056 19.66-.035 14.21-.08 28.423-.071 23.063-.132 46.127-.059 22.39-.125 44.78l-.008 2.793-.041 13.874q-.17 57.45-.323 114.9c-3.024 1.512-6.172 1.204-9.492 1.238l-2.25.025q-2.358.02-4.716.032c-2.401.017-4.801.061-7.202.105q-2.291.015-4.582.026l-2.172.053c-3.362-.015-5.223-.2-7.925-2.273-1.461-1.94-2.793-3.819-3.993-5.929l-1.218-2.112-1.262-2.227q-1.34-2.322-2.684-4.641l-1.308-2.26c-1.463-2.491-3-4.926-4.571-7.35-3.292-5.093-6.395-10.29-9.5-15.5-5.874-9.84-11.95-19.508-18.375-29-2.353-3.5-4.396-7.103-6.406-10.808-2.056-3.64-4.338-7.126-6.598-10.64-2.673-4.193-5.206-8.465-7.746-12.739-4.692-7.883-9.42-15.726-14.379-23.445-2.131-3.36-4.17-6.77-6.2-10.192-1.783-2.964-3.65-5.871-5.538-8.77C1795 1157 1795 1157 1795 1155h-2l-.988-1.828-1.324-2.422-1.301-2.39c-1.387-2.36-1.387-2.36-3.055-4.47C1785 1142 1785 1142 1785 1139h-2l-.96-1.844c-3.809-7.152-8.007-13.993-12.33-20.84-2.806-4.45-5.54-8.944-8.272-13.441a699 699 0 0 0-11.158-17.747c-3.159-4.882-6.14-9.862-9.108-14.862-2.456-4.122-5.042-8.12-7.747-12.081-1.36-2.087-2.566-4.197-3.75-6.388-2.573-4.674-5.365-9.177-8.237-13.672l-1.577-2.483A6399 6399 0 0 0 1715 1028c-7.22-11.345-14.328-22.75-21.28-34.26-4.669-7.716-4.669-7.716-7.126-11.283C1685 980 1685 980 1685 978h-2a142125 142125 0 0 0 .325 115.603q.058 19.253.102 38.505.047 19.777.116 39.555.043 12.188.064 24.377.016 8.376.052 16.751.02 4.821.025 9.642c.04 40.896.04 40.896 7.968 50.587 8.222 7.985 18.362 9.424 29.33 10.298 5.823.487 5.823.487 8.018 2.682.227 1.971.227 1.971.195 4.352l-.02 2.578-.05 2.695-.027 2.719A843 843 0 0 1 1729 1305c-2.485 1.242-4.148 1.131-6.928 1.14l-3.157.018-3.477.003-3.652.015q-4.965.018-9.93.024l-6.2.012q-9.694.02-19.39.027-11.2.007-22.4.05-8.653.033-17.305.034-5.17 0-10.34.025c-3.844.02-7.686.015-11.53.008l-3.47.028-3.166-.017-2.755.005c-2.754-.445-3.64-1.167-5.3-3.372-.34-1.993-.34-1.993-.293-4.23l.03-2.432c.024-.833.05-1.667.076-2.525l.04-2.561c.036-2.084.09-4.168.147-6.252 3.26-1.63 6.91-1.537 10.5-1.875 11.113-1.153 21.03-2.651 28.688-11.562 7.612-10.722 6.967-26.74 6.946-39.383 0-.516 0-.516.007-3.125q.007-5.138.004-10.274l.01-7.405q.011-8.986.012-17.973 0-7.312.006-14.626.013-20.78.012-41.563v-4.519q.002-18.127.023-36.253.023-18.66.02-37.319-.001-10.456.014-20.913.014-9.84.003-19.682-.003-3.597.007-7.193c.09-38.057.09-38.057-8.064-51.272-7.99-7.534-17.615-8.464-28.108-9.274l-2.623-.226-2.376-.184C1603 950 1603 950 1600 948c-.34-1.971-.34-1.971-.293-4.352l.03-2.578c.024-.89.05-1.779.076-2.695l.04-2.719q.054-3.329.147-6.656c2.391-1.196 3.896-1.141 6.566-1.167l2.914-.035 3.208-.023 3.371-.034a5196 5196 0 0 1 30.777-.186 3159 3159 0 0 0 22.744-.16c5.976-.063 11.952-.087 17.928-.098q3.81-.015 7.621-.068c3.556-.046 7.109-.048 10.665-.04l3.184-.071c6.986.08 6.986.08 9.992 2.408A39 39 0 0 1 1723 935l1.512 2.457 1.176 2.356c2.591 4.935 5.39 9.692 8.312 14.437l1.398 2.273 2.982 4.842c2.993 4.869 5.962 9.753 8.933 14.635l1.74 2.856c2.73 4.485 5.448 8.977 8.142 13.484a331 331 0 0 0 6.368 10.223 193 193 0 0 1 7.238 12.296c1.635 2.92 3.445 5.716 5.281 8.512.918 1.629.918 1.629.918 3.629h2l1.625 3.438c1.962 3.93 4.277 7.478 6.75 11.101 2.406 3.643 4.555 7.424 6.738 11.203 6.433 11.107 13.205 21.993 20.023 32.866 6.724 10.736 13.298 21.56 19.864 32.392 6.743 11.114 13.485 22.225 20.395 33.236 6.293 10.037 12.452 20.155 18.53 30.323l2.045 3.418q1.999 3.345 3.992 6.697l1.85 3.1 1.645 2.763c1.413 2.255 2.934 4.346 4.543 6.463q.07-42.077.104-84.154.014-19.54.047-39.077.03-17.037.037-34.072.003-9.015.023-18.03.02-8.497.015-16.994 0-3.107.012-6.214c.123-34.622.123-34.622-7.703-44.264-9.84-9.307-24.304-10.178-37.137-10.851C1840 950 1840 950 1838 948c-.259-1.848-.259-1.848-.266-4.062l-.007-2.415.023-2.523-.023-2.523.007-2.414.007-2.215C1838 930 1838 930 1840 928c2.178-.278 2.178-.278 4.923-.319l3.123-.06 3.415-.035 3.557-.059c3.785-.06 7.571-.106 11.357-.152q3.678-.057 7.355-.117c23.997-.37 47.987-.42 71.98.114"/><path fill="#8c1418" d="M2892 557c.911 3.613 1.006 6.112.102 9.719l-.69 2.782-.787 2.999-.808 3.147c-2.256 8.596-4.77 17.11-7.38 25.603l-1.1 3.6a204 204 0 0 1-7.214 19.524 147 147 0 0 0-2.572 6.411c-3.693 9.774-8.427 18.836-13.382 28.024-2.495 4.677-4.833 9.433-7.169 14.191h-2l-.384 1.79c-.965 3.462-2.936 6.36-4.803 9.398l-1.236 2.031c-3.067 5.015-6.231 9.948-9.577 14.781l-1.535 2.238A701 701 0 0 1 2826 711l-1.16 1.632c-7.004 9.828-14.494 19.178-22.23 28.438a1218 1218 0 0 0-6.798 8.242l-2.042 2.489a87 87 0 0 0-3.383 4.492L2789 758h-2l-.75 1.875c-1.487 2.529-2.687 2.843-5.25 4.125a258 258 0 0 0-2 4c-3.981 5.349-8.632 9.518-13.984 13.457C2763 783 2763 783 2761.6 784.45c-1.652 1.6-3.269 2.708-5.234 3.898l-2.166 1.318-2.326 1.396-2.426 1.469a1551 1551 0 0 1-20.242 12 547 547 0 0 0-8.383 5C2699.14 822.653 2676.202 831.68 2652 839l-2.453.748a206 206 0 0 1-29.266 6.576c-3.085.465-6.131 1.036-9.187 1.664-26.66 5.427-53.96 6.363-81.08 6.273-3.454-.012-6.906-.005-10.359.007-22.708.064-45.015-1.086-67.405-5.018l-4.59-.786a855 855 0 0 1-29.535-5.652l-3.472-.72c-5.3-1.153-9.967-2.325-14.653-5.092-.336-2.23-.336-2.23 0-5 2.336-2.238 2.336-2.238 5.375-4.312l3.023-2.114C2411 824 2411 824 2413 824v-2c1.87-1.399 3.799-2.718 5.75-4 5.818-3.9 11.146-8.12 16.48-12.664a176 176 0 0 1 7.332-5.836c4.447-3.413 8.52-7.182 12.637-10.98 2.598-2.337 5.256-4.532 7.988-6.707 5.739-4.611 11.04-9.648 16.331-14.761l1.978-1.892 1.756-1.699c1.819-1.52 3.593-2.49 5.748-3.461v-2a742 742 0 0 1 6-4 283 283 0 0 0 5-5q1.729-1.617 3.5-3.187l1.656-1.481c3.768-2.722 7.372-3.576 11.965-3.64l3.036-.07 3.28-.06c29.04-.876 57.699-4.631 85.85-11.865a384 384 0 0 1 7.346-1.802c11.014-2.638 21.816-5.783 32.61-9.216l3.187-1.007 2.82-.903c2.9-.811 5.772-1.325 8.75-1.769v-2c5.125-1.92 10.214-3.821 15.5-5.25 11.149-3.246 21.907-8.469 32.426-13.34a645 645 0 0 1 7.867-3.539l2.653-1.18q2.604-1.158 5.212-2.306c5.63-2.51 11.003-5.308 16.342-8.385l2.324-1.33A2813 2813 0 0 0 2763 667l3.031-1.766c16.872-9.97 33.027-21.56 47.969-34.234q1.624-1.346 3.25-2.687c1.545-1.3 3.083-2.608 4.594-3.946l1.906-1.68 1.734-1.55C2827 620 2827 620 2829 620v-2c4.47-4 4.47-4 7-4l1-3c1.463-1.446 1.463-1.446 3.379-3.016 4.948-4.202 9.541-8.718 14.13-13.307 1.418-1.416 2.844-2.824 4.27-4.232 5.411-5.4 10.426-10.936 15.153-16.946 2.21-2.671 4.593-5.073 7.068-7.499a247 247 0 0 0 4.57-5.45c1.937-2.1 3.482-3.55 6.43-3.55"/><path fill="#a31717" d="m190.613 925.71 2.751-.04 2.949-.006 3.048-.02q3.187-.015 6.374-.015a933 933 0 0 0 9.757-.078q3.097-.009 6.196-.012l2.948-.043c6.69.045 6.69.045 9.879 2.215 1.577 2.431 2.62 4.634 3.563 7.375l1.068 3.039 1.104 3.25 2.367 6.773 1.198 3.46c1.8 5.15 3.68 10.27 5.56 15.392 1.766 4.813 3.516 9.624 5.113 14.496 1.622 4.916 3.463 9.738 5.325 14.566l2.125 5.547 1.054 2.752c2.368 6.201 4.684 12.422 7.008 18.639l.75 1.987a562 562 0 0 1 4.625 12.763 290 290 0 0 0 6.305 16.113c2.032 4.829 3.96 9.698 5.894 14.567a591 591 0 0 0 2.696 6.64l1.105 2.68.96 2.297C293 1082 293 1082 293 1085h2l1.188 3.812c1.555 4.688 3.54 9.095 5.625 13.567A89 89 0 0 1 304.5 1109c1.473 4.077 3.28 7.975 5.121 11.898a195 195 0 0 1 3.2 7.68c2.383 6.003 4.986 11.9 7.617 17.797l1.571 3.525c16.21 36.234 16.21 36.234 24.971 52.342 1.655 3.046 3.206 6.13 4.724 9.245 3.731 7.65 7.753 15.136 11.865 22.588q1.447 2.627 2.889 5.258c3.382 6.089 6.927 11.886 11.052 17.501 1.482 2.154 2.628 4.304 3.74 6.666 2.431 5.097 5.307 9.874 8.25 14.687l1.403 2.305c2.162 3.512 4.373 6.949 6.792 10.29 1.78 2.486 3.284 4.828 4.68 7.53 2.337 4.32 5.061 8.259 7.91 12.254 6.715 9.53 6.715 9.53 6.715 12.434h2c1.157 1.374 1.157 1.374 2.426 3.29l1.416 2.105 1.47 2.23c5.408 8.137 5.408 8.137 8.555 11.75 2.133 2.625 2.133 2.625 1.946 5L434 1349c-11.166-1.302-20.36-10.345-29-17l-2.371-1.813A615 615 0 0 1 396 1325l-2.648-2.082a166 166 0 0 1-16.063-14.656C375 1306 375 1306 372.523 1304.02c-2.72-2.178-5.069-4.545-7.523-7.02a780 780 0 0 0-4.207-3.918l-2.275-2.111q-2.355-2.181-4.72-4.352l-2.255-2.1-2.062-1.903C348 1281 348 1281 348 1279h-2a263 263 0 0 1-4-5l-2-1v-2h-2c-1.586-1.574-1.586-1.574-3.375-3.688l-1.89-2.218a270 270 0 0 1-3.86-4.782c-2.13-2.627-4.48-4.923-6.875-7.312-5.966-6.262-11.466-12.746-16.744-19.587-3.368-4.345-6.892-8.52-10.506-12.663-3.963-4.558-7.6-9.175-10.977-14.191-2.151-3.104-4.453-6.08-6.773-9.059-2.964-3.816-5.866-7.657-8.625-11.625-.26-.369-.26-.369-1.581-2.233-1.794-2.642-1.794-2.642-3.425-5.48-4.661-7.552-4.661-7.552-9.155-9.158-3.368-.358-6.579-.366-9.964-.253l-3.816-.005c-3.433-.003-6.862.062-10.294.139-3.594.069-7.188.075-10.782.088-6.797.034-13.592.124-20.389.235-7.74.123-15.482.183-23.223.238-15.917.115-31.831.309-47.746.554l-.817 2.458-1.08 3.246-1.068 3.208a854 854 0 0 1-4.285 12.4l-1.82 5.184-.95 2.707c-2.056 5.87-4.091 11.747-6.128 17.623a1117 1117 0 0 1-5.664 15.924 155 155 0 0 0-4.512 14.848c-.72 2.555-1.68 4.943-2.676 7.402-1.332 5.861-1.576 11.833-.5 17.75 3.69 5.536 8.967 7.322 15.327 8.613 5.162.947 10.316 1.696 15.548 2.137l3.625.5c2.491 3.737 2.296 6.679 2.25 11l.023 2.195c-.014 3.799-.119 5.573-2.273 8.805-2.117.372-2.117.372-4.79.367l-3.063.017-3.374-.028-3.543.007q-4.815.001-9.631-.026c-3.355-.015-6.71-.014-10.065-.015q-8.45-.006-16.9-.04c-7.239-.03-14.478-.04-21.717-.044-6.214-.004-12.428-.017-18.642-.03q-3.003-.007-6.007-.01-5.585-.012-11.17-.037l-3.38-.003-3.056-.018-2.67-.009C13 1306 13 1306 12 1305c-.25-3.138-.185-6.29-.187-9.438l-.038-2.681-.005-2.565-.013-2.36C12 1286 12 1286 14 1284c2.652-.534 5.265-.98 7.938-1.375 12.718-2.11 22.7-5.104 30.742-15.875 4.324-6.81 7.293-14.298 10.32-21.75l1.09-2.625c2.386-5.827 4.492-11.744 6.566-17.688a242 242 0 0 1 3.254-8.41c2.601-6.45 4.793-13.03 7.002-19.623 2.001-5.861 4.313-11.442 6.93-17.053 1.675-3.762 2.935-7.611 4.158-11.539 1.891-6.042 4.122-11.842 6.59-17.673 2.753-6.617 5.29-13.32 7.848-20.014l.87-2.273c3.694-9.655 7.272-19.314 10.348-29.188 1.418-4.351 3.24-8.528 5.02-12.742 2.147-5.143 4.142-10.343 6.137-15.547l1.299-3.382c3.5-9.152 6.88-18.344 10.197-27.563a765 765 0 0 1 3.965-10.755q1.102-2.925 2.19-5.855l1.474-3.945.724-1.95a436 436 0 0 1 4.225-10.859c2.46-6.12 4.718-12.311 6.988-18.504 2.675-7.271 5.362-14.522 8.313-21.687 2.751-6.743 5.043-13.614 7.278-20.544 1.424-4.39 2.902-8.761 4.495-13.093l.892-2.463c2.186-3.858 5.585-4.276 9.76-4.316M184 1018c-4.246 8.518-7.879 17.08-10.943 26.092-3.416 10.046-7.053 20.011-10.675 29.985q-1.247 3.435-2.491 6.872l-.794 2.192a450 450 0 0 0-4.443 12.945c-1.19 3.481-2.594 6.877-3.966 10.289a298 298 0 0 0-7.125 20.125l-.785 2.482C141 1134.727 141 1134.727 141 1137c10.416 1.012 20.736 1.147 31.191 1.133q2.582 0 5.162.003 5.367.002 10.733-.006 6.874-.006 13.75.004 5.31.004 10.62 0l5.073.002q3.532.003 7.063-.007l2.105.007c3.248-.015 6.196-.142 9.303-1.136-1.286-4.274-2.924-7.822-5.25-11.625-2.96-4.969-5.645-9.992-8.184-15.188a305 305 0 0 0-3.226-6.375c-4.936-9.504-9.278-19.263-13.59-29.062l-.922-2.081c-3.73-8.442-7.036-16.861-9.828-25.669-1.568-4.404-3.298-8.733-5.062-13.063-1.177-2.913-2.238-5.78-3.063-8.812-.74-2.642-1.614-4.717-2.875-7.125"/><path fill="#aa1718" d="m2009 269 4 1 .12 2.142c1.38 23.687 4.118 46.836 9.732 69.92.83 3.433 1.497 6.858 2.085 10.34 1.038 5.869 2.667 11.477 4.438 17.16l.883 2.92a186 186 0 0 0 5.764 16.042c1.673 4.237 3.023 8.578 4.416 12.914 2.091 6.383 4.248 12.58 7.187 18.632 1.53 3.26 2.898 6.567 4.268 9.895 2.866 6.954 5.803 13.697 9.544 20.234 1.977 3.543 3.767 7.165 5.563 10.801 5.25 10.582 10.99 20.83 17 31l1.46 2.488c3.628 6.122 7.46 12.106 11.325 18.078 1.89 2.92 3.742 5.862 5.59 8.809 4.666 7.348 9.645 14.488 14.625 21.625l1.378 2.006c3.396 4.88 3.396 4.88 5.622 5.994a399 399 0 0 1 3 6l2.188 3.25C2131 563 2131 563 2131 565h2a104 104 0 0 1 4.438 5.625q1.35 1.793 2.703 3.582l1.42 1.89c2.342 3.097 4.73 6.16 7.126 9.216l1.392 1.778a185 185 0 0 0 9.776 11.456C2161 600 2161 600 2161 602l1.766.719c2.71 1.554 4.1 3.3 5.984 5.781l1.86 2.406C2172 613 2172 613 2172 615l3 1c1.367 1.32 1.367 1.32 2.875 3.125a521 521 0 0 0 7.438 8.637l1.773 2.017q1.776 2.018 3.558 4.028l1.66 1.9 1.5 1.702C2195 639 2195 639 2196 642h2c1.508 1.46 1.508 1.46 3.125 3.375l1.633 1.898C2204 649 2204 649 2204 651l1.746.691c2.86 1.66 4.305 3.626 6.316 6.246 4.153 5.227 8.6 9.823 13.368 14.504 6.01 5.984 11.783 12.546 16.57 19.559v2c-6.112-.555-11.74-1.538-17.625-3.25l-2.379-.679c-6.613-1.91-13.152-4.013-19.657-6.265-2.815-.97-5.636-1.922-8.456-2.876-12.48-4.243-24.796-8.669-36.883-13.93l-2.148-.93a1645 1645 0 0 1-10.266-4.492 378 378 0 0 0-7.012-3.004c-4.15-1.828-8.134-3.882-12.137-6.011l-2.476-1.315q-2.624-1.398-5.246-2.8-2.724-1.452-5.453-2.893c-12.94-6.83-25.285-14.145-37.262-22.555l-2.926-2.04A349 349 0 0 1 2064 615l-2.208-1.668q-3.748-2.843-7.48-5.707l-2.472-1.878c-.756-.585-1.51-1.169-2.29-1.77l-2.072-1.592L2046 601v-2l-1.691-.7c-2.922-1.645-4.91-3.71-7.246-6.112l-2.528-2.583L2032 587c-2.252-2.265-4.506-4.525-6.809-6.738-4.188-4.048-8.084-8.311-11.191-13.262v-2h-2l-2-5h-2l-1.137-1.941-1.55-2.621-1.512-2.567a101 101 0 0 0-4.266-6.254c-2.512-3.483-4.517-7.08-6.41-10.93l-1.027-2.08c-9.465-19.565-14.748-39.895-19.082-61.11l-.523-2.558c-1.257-7.494-1.67-14.89-1.731-22.482l-.03-3.012c-.227-29.23 1.558-56.579 8.679-85.043a271 271 0 0 0 1.585-6.898c1.763-8.027 3.973-15.757 6.665-23.522 1.613-4.68 3.016-9.369 4.29-14.152 2.801-10.463 6.436-20.498 10.361-30.58l.827-2.126c4.642-11.905 4.642-11.905 5.861-13.124"/><path fill="#353032" d="m833.542 929.873 3.646-.009 4.037.007 4.222-.006q5.749-.005 11.497 0c4.002.003 8.004 0 12.007 0q10.083-.004 20.166.005 11.673.007 23.348-.002 10.005-.007 20.01-.003 5.983.003 11.967-.001 5.624-.004 11.248.005l4.14-.002q2.814-.002 5.628.006l3.188.001C971 930 971 930 972 931c.073 2.863.092 5.7.063 8.563l-.014 2.443q-.02 2.997-.049 5.994l-3.043.113c-14.966.666-27.514 2.233-38.457 13.45-6.373 10.355-5.794 24.301-5.771 36.02l-.016 4.228a2590 2590 0 0 0-.018 9.018c-.002 4.758-.02 9.516-.04 14.274-.05 11.807-.08 23.614-.102 35.421a9769 9769 0 0 1-.083 27.605q-.032 7.089-.028 14.177c-.001 2.94-.015 5.879-.033 8.818-.008 2.004-.002 4.007.006 6.011-.052 6.443-.374 11.16-3.415 16.865l-.25 2.563c-1.061 3.449-3.312 4.806-6.156 6.91-1.886 1.807-2.043 3.03-2.594 5.527l-2.187 1.25c-3.363 2.092-4.992 4.434-7.262 7.625-1.93 2.644-4.063 5.057-6.254 7.484C895 1167 895 1167 893.949 1169.117c-.949 1.883-.949 1.883-2.886 3.258-2.063 1.625-2.063 1.625-3.5 4.5-2.034 4.066-4.887 6.635-8.25 9.625-1.723 1.968-2.415 4.063-3.313 6.5l-1 1a133 133 0 0 0-.098 6.223l.01 3.818.026 4.022q.008 2.016.013 4.033.018 4.952.049 9.904c3.758-2.953 6.704-5.886 9.668-9.61L886 1211h2l.813-2.312c1.15-2.606 1.992-3.932 4.187-5.688l3-1c1.293-1.487 2.583-2.98 3.813-4.52 1.298-1.618 2.69-3.045 4.187-4.48l2.5-2.625C909 1188 909 1188 912 1187l.313-2.312c.742-2.905 1.257-3.978 3.687-5.688h4l1-3c2.443 3.664 2.3 6.426 2.303 10.665l.026 2.361c.025 2.58.037 5.16.05 7.74l.051 5.385c.046 4.732.08 9.463.113 14.195.051 7.56.117 15.12.188 22.68q.033 3.954.055 7.908l.04 4.883.008 2.205c.045 4.43.453 8.62 1.166 12.978h2v4l1.75.688c2.25 1.312 2.25 1.312 3.875 3.687 3.456 3.82 7.554 5.046 12.375 6.625l3.176 1.078c4.762 1.148 9.318 1.34 14.199 1.485q2.7.09 5.398.19l2.389.073C972 1285 972 1285 973 1286c.086 1.343.107 2.69.098 4.035l-.01 2.451-.025 2.577-.014 2.587q-.02 3.175-.049 6.35-28.724.035-57.447.052-13.337.007-26.672.023-11.62.015-23.24.02-6.155 0-12.311.01-5.788.01-11.576.008-2.13 0-4.26.006-2.897.006-5.793.001l-3.282.003C826 1304 826 1304 825 1303c-.1-2.843-.139-5.657-.125-8.5l-.012-2.418c.01-5.955.01-5.955 1.137-7.082a274 274 0 0 1 5.778-.24c11.635-.352 22.585-1.628 32.222-8.76a259 259 0 0 0 4-5h2l.438-3.75c.243-2.086.506-4.05 1.074-6.073.548-2.444.616-4.637.62-7.142l.011-3.047-.003-3.342.01-3.555q.01-4.885.01-9.772.005-5.268.016-10.538.02-11.523.024-23.046l.012-14.392q.019-19.929.026-39.857v-5.159l.002-5.181v-2.596q.009-20.817.046-41.632.035-21.376.037-42.752-.001-12 .025-24 .023-10.22.012-20.44-.008-5.21.011-10.423a1778 1778 0 0 0-.004-11.314l.025-3.308c-.045-6.885-.259-14.548-5.392-19.681.375-2.625.375-2.625 1-5l-2.168.645c-3.512.44-5.022-.353-8.144-1.957-8.235-3.943-15.332-4.95-24.318-5.347-5.272-.243-5.272-.243-6.37-1.341-.1-2.677-.139-5.323-.125-8l-.012-2.273c.012-6.581.216-6.852 6.68-6.854"/><path fill="#311c1f" d="M175 955h2l.152 1.905c2.654 32.901 2.654 32.901 4.848 35.095 2.241 11.504 3.112 22.234-2 33q-1.352 3.246-2.687 6.5l-1.262 2.906c-.893 2.203-1.553 4.276-2.051 6.594h-2l.185 3.932c-.007 5.193-1.307 9.348-3.142 14.162l-.92 2.52c-.965 2.634-1.95 5.26-2.935 7.886q-1.455 3.942-2.904 7.886-.9 2.442-1.81 4.879a377 377 0 0 0-4.81 13.75 141 141 0 0 1-2.488 6.801l-.928 2.373-.935 2.373-.971 2.479q-1.169 2.98-2.342 5.959h-2c-1.334 3.05-2.267 6.014-3 9.25l-1 3.75-2 1c-.633 2.285-.633 2.285-1.125 5.063l-.508 2.785L138 1140l3.839-.054q17.9-.243 35.8-.36c6.135-.042 12.27-.099 18.405-.19 5.92-.086 11.839-.134 17.759-.155q3.39-.023 6.778-.087c3.164-.058 6.324-.066 9.488-.062l2.836-.087c2.6.033 4.638.137 7.095.995 1.756 1.885 2.84 3.676 3.962 5.989 1.093 2.118 2.317 3.387 4.038 5.011 1.133 1.902 1.133 1.902 2.125 3.938l1.008 2.027c.851 1.997 1.403 3.917 1.867 6.035h3v3l-129 1-4 9-2 1 .125 3.75c.113 3.387-.557 5.273-2.125 8.25l-.75 3.813c-1.324 6.398-3.997 12.29-6.485 18.302-18.646 45.96-18.646 45.96-15.015 63.51 2.083 3.958 6.231 4.826 10.25 6.438l2.563 1.035c5.552 2.055 10.99 2.23 16.857 2.507 5.478.293 5.478.293 6.58 1.395.098 1.33.13 2.666.133 4l.004 2.438-.012 2.562.012 2.563-.004 2.437-.004 2.25C133 1304 133 1304 132 1305a71 71 0 0 1-4.555.127l-2.983.009-3.3-.007-3.454.006q-5.682.004-11.364-.002-3.93 0-7.858.003-8.247.003-16.494-.006-9.547-.007-19.095.002-9.168.007-18.336.002l-7.818.002q-5.453.003-10.905-.007l-3.3.007-2.983-.009-2.608-.001C15 1305 15 1305 14 1304a55 55 0 0 1-.133-4l-.004-2.437.012-2.563-.012-2.562.004-2.438.004-2.25C14 1286 14 1286 15 1285a72 72 0 0 1 4.078-.684l2.52-.373 5.257-.75c6.827-1.015 11.3-2.072 16.145-7.193l3.875-3.125C55.24 1265.548 58.905 1255.08 63 1245l1.09-2.625c2.386-5.827 4.492-11.744 6.566-17.687a242 242 0 0 1 3.254-8.41c2.601-6.45 4.793-13.032 7.002-19.624 2.001-5.861 4.313-11.442 6.93-17.053 1.675-3.762 2.935-7.611 4.158-11.539 1.891-6.042 4.122-11.842 6.59-17.673 2.753-6.617 5.29-13.32 7.847-20.014l.871-2.273c3.694-9.655 7.272-19.314 10.348-29.188 1.418-4.351 3.24-8.528 5.02-12.742 2.147-5.143 4.142-10.343 6.136-15.547l1.3-3.382c3.5-9.152 6.88-18.344 10.197-27.563a765 765 0 0 1 3.965-10.755q1.102-2.925 2.19-5.855l1.474-3.945.724-1.95a430 430 0 0 1 4.275-10.968 269 269 0 0 0 4.098-10.89l1.014-2.87q1.027-2.923 2.039-5.851l1.01-2.842.89-2.553c1.055-2.295 2.176-3.504 4.012-5.201 1.168-2.262 1.168-2.262 2.188-4.687l1.042-2.45L170 967h2z"/><path fill="#951516" d="M264 1011c2.938 3.424 4.375 7.184 5.875 11.375l.785 2.14c1.669 4.566 3.284 9.15 4.902 13.735 1.875 5.283 3.927 10.454 6.118 15.613 2.032 4.829 3.96 9.698 5.894 14.567a591 591 0 0 0 2.696 6.64l1.105 2.68.96 2.297C293 1082 293 1082 293 1085h2l1.188 3.813c1.555 4.687 3.54 9.094 5.625 13.566A89 89 0 0 1 304.5 1109c1.473 4.077 3.28 7.975 5.121 11.898a195 195 0 0 1 3.2 7.68c2.383 6.003 4.986 11.9 7.616 17.797.52 1.163 1.038 2.326 1.572 3.525 16.21 36.234 16.21 36.234 24.971 52.342 1.655 3.046 3.206 6.13 4.724 9.245 3.731 7.65 7.753 15.136 11.865 22.588q1.448 2.627 2.889 5.258c3.382 6.089 6.927 11.886 11.052 17.501 1.482 2.154 2.628 4.303 3.74 6.666 2.431 5.097 5.307 9.874 8.25 14.688l1.403 2.304c2.162 3.512 4.373 6.949 6.792 10.29 1.78 2.486 3.284 4.828 4.68 7.53 2.337 4.32 5.061 8.259 7.91 12.254 6.715 9.53 6.715 9.53 6.715 12.434h2c2.108 2.423 3.825 5.156 5.625 7.813l1.563 2.236 1.476 2.158 1.358 1.984C430 1339 430 1339 430 1342c-3.712-3.494-6.71-7.176-9.668-11.328C419 1329 419 1329 417 1328l-1 2c-2.562-1.28-2.765-2.457-4-5-.976-1.351-1.97-2.69-3-4h2l-1-6h-2l-.75-3.25c-1.913-5.739-5.085-7.88-10.25-10.75v-2h2c-1.335-3.594-2.96-6.755-5-10l-1 5-2-1v-4l-2.75-.5c-4.08-1.883-4.598-3.57-6.309-7.543-.941-1.957-.941-1.957-3.128-4.145-2.214-2.213-2.322-3.787-2.813-6.812l-2-1v-5h-2c-1.437-1.312-1.437-1.312-3-3l-1.562-1.375c-1.795-2.029-2.546-4.087-3.438-6.625h-3l-2-1 .625-3.75c.447-3.482.223-5.207-1.625-8.25v-4h-2v-2l-4 1-.367-1.977c-.74-3.858-1.47-7.554-2.758-11.273-.97-3.047-1.026-5.572-.875-8.75h-2v-6h-3l-1 3-1.187-3.375c-1.457-3.46-1.457-3.46-4.375-4.812L334 1201c-1.25-2.062-1.25-2.062-2-4l-1-1c-.141-2.67-.042-5.324 0-8l-2 1c-2.802-6.539-3.36-12.977-4-20h-2c-6.459-5-7.362-13.087-8.473-20.68C314 1146 314 1146 312 1144c-.746-1.883-.746-1.883-1.437-4.125a133 133 0 0 0-3.25-9.187C306 1127 306 1127 306 1123l-3 1-.586-1.715-.789-2.223-.773-2.214C300 1116 300 1116 298 1115l.688-3.062c.366-4.616-.64-6.842-2.688-10.938l-1.062-2.875C294 1096 294 1096 292 1095l-.078-2.344c-.32-5.89-.839-10.451-3.809-15.57-1.84-3.449-2.951-7.162-4.183-10.863C283 1064 283 1064 281 1063c-.633-2.723-.633-2.723-1.125-6.062l-.508-3.348L279 1051h-2a3495 3495 0 0 1-3-8.875l-.867-2.55-.82-2.442-.762-2.254C271 1033 271 1033 271 1031h-2c-2.776-6.561-4.003-12.96-5-20"/><path fill="#871720" d="M2178 545c3.75 1.25 4.717 2.833 7 6l.938 2c1.062 2 1.062 2 3.562 4.438 2.452 2.513 3.462 4.258 4.5 7.562h2l1 4h2l1 7 3 1a124 124 0 0 1 5 6.375c5 6.735 5 6.735 8 9.625a197 197 0 0 1 3 5c2.634 4.215 5.401 7.577 9 11l2.5 2.75c2.632 2.369 4.028 2.952 7.5 3.25v3l4 1 .188 1.75c1.125 3.118 3.23 4.264 5.812 6.25v2h2l1-3c2.9 2.395 3.502 4.312 4 8l4 1 1-3 2 1v3c1.093 3.364 2.12 5.867 5 8q2.488.56 5 1l3 2-1 4h2l1-3 .875 3.438L2279 655l2 1 6 3c.494-6.299.494-6.299-1.937-9.75L2283 647l-1-3-1.562-2.562C2279 639 2279 639 2279 637l-7-1 .063-2.25c-.089-3.886-.276-5.963-3.063-8.75v-3l-2-1 1-2h-2c-3.19-4.784-4.332-8.212-5-14h-5c-1.312-3.937-.243-6.125 1-10h3l.875 1.938C2262 599 2262 599 2264 600c3.838 6.074 6.866 12.695 10.063 19.125 13.26 26.647 13.26 26.647 22.937 32.875 1.02 1.658 2.038 3.324 2.922 5.059 1.657 2.983 3.789 5.574 5.906 8.242C2307 667 2307 667 2307 669h2c1.156 1.512 1.156 1.512 2.5 3.688 3.099 4.844 6.551 9.324 10.16 13.793 2.177 2.754 3.886 4.98 4.34 8.519-3.04 1.39-4.2.925-7.398-.266a172 172 0 0 1-3.977-1.984l-2.135-1.084c-6.947-3.67-12.907-8.303-18.9-13.345-3.224-2.679-6.579-5.198-9.895-7.762L2282 669v-2l-1.77-.8c-3.86-2.076-6.807-5.213-9.98-8.2l-2.113-1.945-1.996-1.867-1.828-1.708C2263 651 2263 651 2263 649l-1.937-.812C2259 647 2259 647 2258 644a178 178 0 0 0-4-2c-2.25-2-2.25-2-4-4v-2l-3-1c-1.473-1.46-1.473-1.46-3.062-3.375-2.818-3.332-5.716-6.556-8.688-9.75-4.384-4.799-8.427-9.796-12.4-14.937-2.431-3.144-4.901-6.21-7.537-9.188C2213 595 2213 595 2213 593h-2c-1.262-1.434-1.262-1.434-2.687-3.437-2.073-2.862-4.175-5.674-6.376-8.438-4.247-5.426-8.232-11.043-12.23-16.654-2.408-3.363-4.814-6.653-7.523-9.78-2.71-3.339-3.279-5.577-4.184-9.691"/><path fill="#e2bcc0" d="M1585.438 565.813h3.801c20.32.013 40.509.499 60.761 2.187l2.772.227c5.428.463 10.825 1.09 16.228 1.773l3.386.414c40.27 4.933 80.189 11.961 119.614 21.586v1c-7.671.619-13.826-.905-21.092-3.074-5.995-1.76-11.769-2.793-17.99-3.469-2.918-.457-5.21-1.31-7.918-2.457-6.707-1.756-13.618-2.491-20.48-3.367-5.508-.741-10.98-1.698-16.457-2.633-8.323-1.419-16.627-2.659-25.016-3.605-3.047-.395-3.047-.395-4.982-.89-28.014-6.856-60.343-4.904-89.108-4.882q-3.443.002-6.884-.003c-23.728-.01-47.491.415-70.998 3.929-3.367.494-6.729.864-10.118 1.162-22.333 2.073-22.333 2.073-33.145 4.351l-2.354.492c-5.185 1.173-5.185 1.173-7.458 3.446-1.985.431-3.99.775-6 1.063-5.817.845-5.817.845-8 1.937-1.768.194-3.536.383-5.307.545-7.304.684-14.253 1.906-21.318 3.893l-2.22.622a85 85 0 0 0-9.8 3.503c-3.146 1.347-6.09 2.232-9.418 3-3.223.764-6.296 1.559-9.437 2.625-2.5.812-2.5.812-6.5.812v2l-3.402 1.172c-24.144 8.374-24.144 8.374-30.348 14.578L1345 619h-2v2l-6 1-1 3h-5v2l-3.148.629c-8.584 1.845-16.515 3.83-22.852 10.371-1.258 2.723-1.258 2.723-2 5l-3-1 1 3-1.828.48c-5.264 1.537-8.053 2.779-11.172 7.52l-2 1v7c-.675.315-1.35.63-2.047.953-4.665 2.238-8.468 4.126-11.953 8.047h-2l-1 3h-3v-2h-2v2h-3v-2h-3l-1 3c-4.61 3.815-9.338 6.16-15 8l-1 3a393 393 0 0 1-5 3c-3.564 3.15-5.371 5.58-7 10-1.437 1.813-1.437 1.813-3 3h-3v2c-1.75 2.125-1.75 2.125-4 4h-4l-.75 2.875C1213 713 1213 713 1211.188 714.25q-2.273.779-4.551 1.54c-3.008 1.38-4.719 2.959-7.012 5.335l-2.148 2.195c-5.554 6.009-10.84 12.239-16.04 18.555l-1.811 2.2c-7.259 8.86-14.258 17.924-21.227 27.012q-2.225 2.898-4.461 5.788l-1.3 1.712c-2.573 3.316-5.262 5.922-8.638 8.413 1.618-3.818 4.168-6.673 6.875-9.75 4.194-4.855 8.133-9.835 11.938-15 4.979-6.76 10.224-13.255 15.643-19.667l1.708-2.036 1.514-1.786c1.378-1.836 2.312-3.706 3.322-5.761 1.516-1.422 1.516-1.422 3.25-2.75 2.68-2.194 4.691-4.36 6.688-7.187 2.667-3.748 5.71-6.521 9.234-9.454 2.247-1.978 3.98-4.263 5.828-6.609h2v-2h2v-2c1.258-1.27 1.258-1.27 3.125-2.812a208 208 0 0 0 8.418-7.504l1.88-1.773a939 939 0 0 0 3.74-3.555l1.763-1.66 1.575-1.5C1236 683 1236 683 1239 682q2.506-2.494 5-5c2.5-2.042 5.09-3.96 7.688-5.875l2.135-1.585C1269.42 658 1269.42 658 1272 658v-2h2v-2c.25-.15.25-.15 1.51-.915 16.43-9.966 16.43-9.966 23.506-14.765 7.43-4.944 15.272-9.169 23.152-13.343a674 674 0 0 0 5.738-3.106c16.94-9.19 34.526-17.202 52.883-23.133 2.429-.81 4.815-1.71 7.211-2.613 4.558-1.665 9.16-3.115 13.816-4.477l2.245-.657c7.923-2.302 15.887-4.434 23.877-6.491l2.267-.585c16.873-4.338 33.859-7.618 51.046-10.453q3.394-.571 6.776-1.208c11.127-1.967 22.282-2.979 33.535-3.879l2.35-.189A1604 1604 0 0 1 1540 567l2.116-.153c14.43-1.027 28.86-1.045 43.322-1.034"/><path fill="#842c31" d="M1591.527 542.67c5.49.019 10.98.018 16.47.012q9.018-.007 18.038.011 3.795.006 7.59.004 5.252.002 10.502.028l3.132-.007 2.884.021 2.492.007c2.729.293 4.838 1.209 7.365 2.254 2.779.276 5.482.462 8.266.562l2.402.112q3.79.173 7.582.326 4.977.207 9.953.437l2.264.083c5.345.247 10.347 1.175 15.533 2.48v1l3.437.437C1713 551 1713 551 1714 552c1.687.047 3.375.037 5.062 0 4.783-.031 9.239.077 13.938 1l3 3c2.675.574 5.263.776 8 1l-4 1v2l22 2v3l2.875.875C1768 567 1768 567 1770 569c-6.949-.607-13.435-1.972-20.188-3.688a681 681 0 0 0-60.625-12l-3.722-.576A468 468 0 0 0 1672 551l-3.337-.387c-22.336-2.502-44.458-3.055-66.918-2.936-3.42.014-6.838.009-10.257.004-19.916-.023-39.645.451-59.488 2.319l-2.902.27a914 914 0 0 0-18.598 1.98l-2.785.317c-22.752 2.61-45.258 6.423-67.752 10.687q-3.851.727-7.712 1.422c-11.865 2.155-23.613 4.797-35.376 7.449q-4.56 1.026-9.122 2.049-2.812.63-5.623 1.265c-4.363.979-8.707 1.886-13.13 2.561l-1-3a6646 6646 0 0 1 9.125-5.313l2.594-1.513c9.668-5.615 9.668-5.615 13.281-7.174l2 1a91 91 0 0 1-4 4h-2v2l-7 3c1.938-.114 3.876-.242 5.812-.375l3.27-.21C1394 570 1394 570 1397 568c2.818-.535 5.6-.983 8.437-1.375 7.156-1.065 14.274-2.246 21.375-3.625l2.512-.466c4.676-.925 8.443-2.252 12.676-4.534h2v-2a144 144 0 0 1 20-1v-2l3.937.187c5.1 0 9.984-.658 15-1.5l2.26-.356c3.878-.69 6.291-1.239 8.803-4.331 28.978-9.66 67.495-4.434 97.527-4.33"/><path fill="#b02022" d="M2892 557c.911 3.613 1.006 6.112.102 9.719l-.69 2.782-.787 2.999-.808 3.147c-2.256 8.596-4.77 17.11-7.38 25.603l-1.1 3.6a204 204 0 0 1-7.205 19.506 166 166 0 0 0-2.652 6.57c-3.476 9.105-7.728 17.57-12.48 26.074l-1-3c.985-1.675 1.99-3.34 3-5a99 99 0 0 0 1.375-4.125c1.477-4.683 3.452-9.052 5.54-13.492C2869 629 2869 629 2870 626h2l.352-2.07c.75-3.387 1.863-6.536 3.023-9.805 2.316-6.68 3.809-13.32 5.047-20.273C2881 591 2881 591 2882 590q.552-3.493 1-7h2l-1-12h-3v2l-4 1 1 4-1.898.516c-.41.12-.41.12-2.477.734l-2.46.703c-2.165 1.047-2.165 1.047-2.992 2.8-1.565 2.998-3.673 4.9-6.11 7.24q-1.482 1.442-2.961 2.886-2.324 2.25-4.662 4.489a640 640 0 0 0-4.503 4.374l-2.722 2.62c-2.369 2.821-3.299 5.099-4.215 8.638h-3l.688 3.313c.312 3.687.312 3.687-1 5.625C2838 623 2838 623 2836 623l-1 4-2-3-5 1v2c-4.75 3-4.75 3-7 3l-1 3h-2l.688 1.75c.312 2.25.312 2.25-1 4.25l-1.688 2a88 88 0 0 0-2 4h-4l-1 6h-3.25C2802 653 2802 653 2800.156 654c-2.767 1.283-5.395 1.667-8.406 2.125l-3.266.508L2786 657v4h-2v2l-7 1v2l-2.812.813C2771 668 2771 668 2769.562 669.563c-2.486 2.288-5.3 2.13-8.562 2.437v2c-2.561 2.296-3.48 3-7 3l-1 5-2.25.125c-3.832 1.22-4.693 3.54-6.75 6.875h-2l-1 3-1.863-.035-2.45-.028-2.425-.035C2732 692 2732 692 2729 693l2 6c-3.674 3.35-6.11 4.389-11 5-3.058 1.042-4.706 1.706-7 4-2.044.375-4.054.504-6.125.656C2705 709 2705 709 2703 711c-5.89 2.13-11.78 2.573-18 3l-1 3c-3.27 1.36-6.46.943-9.937.75-5.664-.083-5.664-.083-9.063 2.75l-2 2.5h-4v-2l2-1-10 1-1 3-2.375-.187c-3.164.163-5.176.594-8.125 1.562-5.336 1.722-10.647 2.438-16.203 3.098-3.278.524-6.16 1.466-9.297 2.527-2.21.273-2.21.273-4.375.375-4.801.403-9.338 1.399-14 2.563l-2.091.515c-2.719.698-5.251 1.404-7.76 2.676C2584 738 2584 738 2580 738v2l-3.184.367-4.253.508-2.084.238c-3.613.437-7.083 1.014-10.61 1.914-5.087 1.146-9.958 1.228-15.154 1.168l-2.854-.008c-2.974-.011-5.949-.036-8.923-.062q-3.047-.016-6.092-.027-7.423-.035-14.846-.098v3h-4v2l-2.187.75c-3.056 1.358-5.228 3.154-7.813 5.25h-2l-.777 1.863c-1.388 2.426-2.348 3.04-4.785 4.324-4.427 2.602-7.685 5.892-11.239 9.567-3.226 3.295-6.69 6.26-10.199 9.246a8940 8940 0 0 0-6.875 5.875l-1.846 1.575a380 380 0 0 0-10.404 9.237C2435.173 810 2435.173 810 2430 810c4-3.585 8.031-7.067 12.313-10.312 4.533-3.477 8.69-7.297 12.886-11.168 2.598-2.337 5.256-4.532 7.988-6.707 5.739-4.611 11.04-9.648 16.331-14.761l1.978-1.892 1.756-1.699c1.819-1.52 3.593-2.49 5.748-3.461v-2a742 742 0 0 1 6-4 283 283 0 0 0 5-5q1.729-1.617 3.5-3.187l1.656-1.481c3.768-2.722 7.372-3.576 11.965-3.64l3.036-.07 3.28-.06c29.04-.876 57.699-4.631 85.85-11.865a384 384 0 0 1 7.346-1.802c11.014-2.638 21.816-5.783 32.61-9.216l3.187-1.007 2.82-.903c2.9-.811 5.772-1.325 8.75-1.769v-2c5.125-1.92 10.214-3.821 15.5-5.25 11.149-3.246 21.907-8.469 32.426-13.34a645 645 0 0 1 7.867-3.539l2.653-1.18q2.604-1.158 5.212-2.306c5.63-2.51 11.003-5.308 16.342-8.385l2.324-1.33A2813 2813 0 0 0 2763 667l3.031-1.766c16.872-9.97 33.027-21.56 47.969-34.234q1.624-1.346 3.25-2.687c1.545-1.3 3.083-2.608 4.594-3.946l1.906-1.68 1.734-1.55C2827 620 2827 620 2829 620v-2c4.47-4 4.47-4 7-4l1-3c1.463-1.446 1.463-1.446 3.379-3.016 4.948-4.202 9.541-8.718 14.13-13.307 1.418-1.416 2.844-2.824 4.27-4.232 5.411-5.4 10.426-10.936 15.153-16.946 2.21-2.671 4.593-5.073 7.068-7.499a247 247 0 0 0 4.57-5.45c1.937-2.1 3.482-3.55 6.43-3.55"/><path fill="#b41b1c" d="M2688 836c-1.44 3.362-3.247 5.592-6 8h-2v2l-2.344 1.32c-9.538 5.454-9.538 5.454-13.531 8.68-3.816 2.972-7.93 5.011-12.278 7.107-5.926 2.872-11.649 6.074-17.366 9.341-10.432 5.9-10.432 5.9-15.481 7.552l-2-1c4.625-4 4.625-4 8-4v-3h-9l1 3c-2.563 1.538-4.364 2.047-7.375 2.438-3.625.562-3.625.562-6.75 2.125-2.963 1.48-4.623 1.724-7.875 1.437l1-2h4v-2l3-1c-5.87-.19-10.966.286-16.691 1.555-2.8.54-5.466.595-8.309.445l2-2h4v-2h-8v2c-18.543.928-37.088 1.133-55.652 1.177q-3.802.01-7.606.031c-37.511.188-37.511.188-50.742-3.208a138 138 0 0 0-4.93-.465l-2.892-.232-3.053-.24c-20.463-1.709-20.463-1.709-26.125-3.063l-1-2a574 574 0 0 1 26.563 2.5l3.478.395 6.324.732c2.635.373 2.635.373 4.556.877 3.571.852 7.233.881 10.888 1.047l2.76.127c12.13.5 24.267.51 36.406.507q4.09 0 8.18.02c15.736.078 31.224-.182 46.845-2.205l3.667-.44c19.116-2.359 37.973-6.81 56.333-12.56l2.64-.82c16.513-5.18 32.648-11.177 47.73-19.742 2.787-1.567 4.37-2.438 7.63-2.438"/><path fill="#af2127" d="M2892 557c.911 3.613 1.006 6.112.102 9.719l-.69 2.782-.787 2.999-.808 3.147c-2.256 8.596-4.77 17.11-7.38 25.603l-1.1 3.6a204 204 0 0 1-7.205 19.506 166 166 0 0 0-2.652 6.57c-3.476 9.105-7.728 17.57-12.48 26.074l-1-3c.985-1.675 1.99-3.34 3-5a99 99 0 0 0 1.375-4.125c1.477-4.683 3.452-9.052 5.54-13.492C2869 629 2869 629 2870 626h2l.352-2.07c.75-3.387 1.863-6.536 3.023-9.805 2.316-6.68 3.809-13.32 5.047-20.273C2881 591 2881 591 2882 590q.552-3.493 1-7h2l-1-12h-3v2l-4 1 1 4-1.898.516c-.41.12-.41.12-2.477.734l-2.46.703c-2.165 1.047-2.165 1.047-2.992 2.8-1.565 2.998-3.673 4.9-6.11 7.24q-1.482 1.442-2.961 2.886-2.324 2.25-4.662 4.489a640 640 0 0 0-4.503 4.374l-2.722 2.62c-2.369 2.821-3.299 5.099-4.215 8.638h-3l.688 3.313c.312 3.687.312 3.687-1 5.625C2838 623 2838 623 2836 623l-1 4-2-3-5 1v2c-4.75 3-4.75 3-7 3l-1 3h-2l.688 1.75c.312 2.25.312 2.25-1 4.25l-1.688 2a88 88 0 0 0-2 4h-4l-1 6-3.25.875C2802 653 2802 653 2800.156 654c-2.767 1.283-5.395 1.667-8.406 2.125l-3.266.508L2786 657v4h-2v2l-7 1v2l-2.812.813C2771 668 2771 668 2769.562 669.563c-2.486 2.288-5.3 2.13-8.562 2.437v2c-2.561 2.296-3.48 3-7 3l-1 5-2.25.125c-3.832 1.22-4.693 3.54-6.75 6.875h-2l-1 3-1.863-.035-2.45-.028-2.425-.035C2732 692 2732 692 2729 693l2 6c-3.674 3.35-6.11 4.389-11 5-3.058 1.042-4.706 1.706-7 4-2.044.375-4.054.504-6.125.656C2705 709 2705 709 2703 711c-5.89 2.13-11.78 2.573-18 3l-1 3c-3.27 1.36-6.46.943-9.937.75-5.664-.083-5.664-.083-9.063 2.75l-2 2.5h-4v-2l2-1-10 1-1 3-2.375-.187c-3.164.163-5.176.594-8.125 1.562-5.336 1.722-10.647 2.438-16.203 3.098-3.278.524-6.16 1.466-9.297 2.527-2.21.273-2.21.273-4.375.375-4.801.403-9.338 1.399-14 2.563l-2.091.515c-2.719.698-5.251 1.404-7.76 2.676C2584 738 2584 738 2580 738v2l-3.184.367-4.253.508-2.084.238c-3.613.437-7.083 1.014-10.61 1.914-5.087 1.146-9.958 1.228-15.154 1.168l-2.854-.008c-2.974-.011-5.949-.036-8.923-.062q-3.047-.016-6.092-.027-7.423-.035-14.846-.098v3h-4v2l-2.187.75c-3.056 1.358-5.228 3.154-7.813 5.25h-2l-.777 1.863c-1.388 2.426-2.348 3.04-4.785 4.324-4.427 2.602-7.685 5.892-11.239 9.567-3.226 3.295-6.69 6.26-10.199 9.246a8940 8940 0 0 0-6.875 5.875l-1.846 1.575a380 380 0 0 0-10.404 9.237C2435.173 810 2435.173 810 2430 810c4-3.585 8.031-7.067 12.313-10.312 4.533-3.477 8.69-7.297 12.886-11.168 2.598-2.337 5.256-4.532 7.988-6.707 5.739-4.611 11.04-9.648 16.331-14.761l1.978-1.892 1.756-1.699c1.819-1.52 3.593-2.49 5.748-3.461v-2a742 742 0 0 1 6-4 283 283 0 0 0 5-5q1.729-1.617 3.5-3.187l1.656-1.481c3.768-2.722 7.372-3.576 11.965-3.64l3.036-.07 3.28-.06c29.04-.876 57.699-4.631 85.85-11.865a384 384 0 0 1 7.346-1.802c11.014-2.638 21.816-5.783 32.61-9.216l3.187-1.007 2.82-.903c2.9-.811 5.772-1.325 8.75-1.769v-2c5.125-1.92 10.214-3.821 15.5-5.25 11.149-3.246 21.907-8.469 32.426-13.34a645 645 0 0 1 7.867-3.539l2.653-1.18q2.604-1.158 5.212-2.306c5.63-2.51 11.003-5.308 16.342-8.385l2.324-1.33A2813 2813 0 0 0 2763 667l3.031-1.766c16.872-9.97 33.027-21.56 47.969-34.234q1.624-1.346 3.25-2.687c1.545-1.3 3.083-2.608 4.594-3.946l1.906-1.68 1.734-1.55C2827 620 2827 620 2829 620v-2c4.47-4 4.47-4 7-4l1-3c1.463-1.446 1.463-1.446 3.379-3.016 4.948-4.202 9.541-8.718 14.13-13.307 1.418-1.416 2.844-2.824 4.27-4.232 5.411-5.4 10.426-10.936 15.153-16.946 2.21-2.671 4.593-5.073 7.068-7.499a247 247 0 0 0 4.57-5.45c1.937-2.1 3.482-3.55 6.43-3.55"/></svg>
