<svg width="48" height="48" viewBox="0 0 48 48" fill="none" xmlns="http://www.w3.org/2000/svg" role="img" aria-label="ARKAND">
  <rect width="48" height="48" rx="12" fill="#A4161A"/>
  <path d="M24 8c3.4 3.2 5.1 6.6 5.1 10.2 0 1.9-.5 3.6-1.4 5.2 2.6-.6 4.6-2.2 6-4.8.6 3.9-.3 7.2-2.6 9.9-2.3 2.7-5 4.1-8.1 4.3 1.7 1 3.6 1.5 5.8 1.6-2.4 2.2-5 3.4-7.9 3.4-3.5 0-6.4-1.2-8.7-3.7-2.3-2.5-3.4-5.5-3.2-9 .1-2.6 1-5 2.6-7.2.5 2 1.6 3.6 3.3 4.7-.7-1.7-1-3.4-.8-5.1.3-3.4 2.2-6.6 5.6-9.5l-.1-.1c.9-.9 1.8-1.4 2.6-1.4l1.1-.9c.1.1.4.4.8.8l.1-.1z" fill="#FFFFFF" fill-opacity="0.95"/>
  <circle cx="24" cy="30" r="3.2" fill="#A4161A"/>
</svg>
